<svg width="56" height="22" viewBox="0 0 56 22" fill="none" xmlns="http://www.w3.org/2000/svg">
<path d="M18.7372 7.76562H14.3821C14.3026 7.20218 14.1402 6.7017 13.8949 6.2642C13.6496 5.82007 13.3348 5.44223 12.9503 5.13068C12.5658 4.81913 12.1217 4.58049 11.6179 4.41477C11.1207 4.24905 10.5805 4.16619 9.99716 4.16619C8.94318 4.16619 8.0251 4.42803 7.2429 4.9517C6.4607 5.46875 5.85417 6.22443 5.4233 7.21875C4.99242 8.20644 4.77699 9.40625 4.77699 10.8182C4.77699 12.2699 4.99242 13.4896 5.4233 14.4773C5.8608 15.465 6.47064 16.2107 7.25284 16.7145C8.03504 17.2183 8.93987 17.4702 9.96733 17.4702C10.544 17.4702 11.0777 17.3939 11.5682 17.2415C12.0653 17.089 12.5062 16.867 12.8906 16.5753C13.2751 16.277 13.5933 15.9157 13.8452 15.4915C14.1037 15.0672 14.2827 14.5833 14.3821 14.0398L18.7372 14.0597C18.6245 14.9943 18.3428 15.8958 17.892 16.7642C17.4479 17.6259 16.848 18.3982 16.0923 19.081C15.3433 19.7571 14.4484 20.294 13.4077 20.6918C12.3736 21.0829 11.2036 21.2784 9.89773 21.2784C8.08144 21.2784 6.45739 20.8674 5.02557 20.0455C3.60038 19.2235 2.47348 18.0336 1.64489 16.4759C0.822917 14.9181 0.411932 13.0322 0.411932 10.8182C0.411932 8.59754 0.829546 6.70833 1.66477 5.15057C2.5 3.5928 3.63352 2.40625 5.06534 1.59091C6.49716 0.768939 8.10795 0.357954 9.89773 0.357954C11.0777 0.357954 12.1714 0.523674 13.179 0.855113C14.1932 1.18655 15.0914 1.67045 15.8736 2.30682C16.6558 2.93655 17.2921 3.70881 17.7827 4.62358C18.2798 5.53835 18.598 6.5857 18.7372 7.76562ZM21.8246 21V0.636363H29.8587C31.4032 0.636363 32.719 0.931344 33.8061 1.52131C34.8932 2.10464 35.7218 2.91667 36.2919 3.95739C36.8686 4.99148 37.157 6.18466 37.157 7.53693C37.157 8.8892 36.8653 10.0824 36.282 11.1165C35.6986 12.1506 34.8535 12.956 33.7464 13.5327C32.6461 14.1094 31.3137 14.3977 29.7493 14.3977H24.6286V10.9474H29.0533C29.8819 10.9474 30.5646 10.8049 31.1016 10.5199C31.6451 10.2282 32.0495 9.82718 32.3146 9.31676C32.5864 8.79972 32.7223 8.20644 32.7223 7.53693C32.7223 6.86079 32.5864 6.27083 32.3146 5.76704C32.0495 5.25663 31.6451 4.86222 31.1016 4.58381C30.558 4.29877 29.8686 4.15625 29.0334 4.15625H26.13V21H21.8246ZM39.9535 21V0.636363H47.9876C49.5321 0.636363 50.8479 0.931344 51.935 1.52131C53.0221 2.10464 53.8507 2.91667 54.4208 3.95739C54.9975 4.99148 55.2859 6.18466 55.2859 7.53693C55.2859 8.8892 54.9942 10.0824 54.4109 11.1165C53.8275 12.1506 52.9824 12.956 51.8754 13.5327C50.775 14.1094 49.4426 14.3977 47.8782 14.3977H42.7575V10.9474H47.1822C48.0108 10.9474 48.6935 10.8049 49.2305 10.5199C49.774 10.2282 50.1784 9.82718 50.4435 9.31676C50.7153 8.79972 50.8512 8.20644 50.8512 7.53693C50.8512 6.86079 50.7153 6.27083 50.4435 5.76704C50.1784 5.25663 49.774 4.86222 49.2305 4.58381C48.6869 4.29877 47.9975 4.15625 47.1623 4.15625H44.2589V21H39.9535Z" fill="#E5E5E5"/>
</svg>
