<svg width="28" height="28" viewBox="0 0 28 28" fill="none" xmlns="http://www.w3.org/2000/svg">
<path d="M11.7602 12.67C11.8185 12.285 11.9468 11.9467 12.1102 11.6667C12.4602 11.0134 13.0552 10.675 13.8602 10.6634C14.3852 10.6634 14.8635 10.8967 15.2018 11.235C15.5285 11.5967 15.7502 12.0984 15.7502 12.6H17.8502C17.8268 12.0517 17.7218 11.55 17.5002 11.0834C17.3252 10.64 17.0568 10.2434 16.7068 9.91671C15.0152 8.35337 11.8768 8.57504 10.4418 10.3484C8.93683 12.2967 8.90183 15.7034 10.4302 17.6517C11.8418 19.39 14.9335 19.635 16.6135 18.0834C16.9752 17.7917 17.2668 17.43 17.5002 17.01C17.6868 16.59 17.8152 16.1467 17.8268 15.6684H15.7502C15.7502 15.9134 15.6685 16.135 15.5635 16.3334C15.4585 16.555 15.3185 16.73 15.1668 16.8817C14.7818 17.185 14.3268 17.3484 13.8368 17.3484C13.4168 17.3367 13.0668 17.255 12.7985 17.08C12.4955 16.9106 12.2544 16.6491 12.1102 16.3334C11.5268 15.2834 11.6202 13.825 11.7602 12.67ZM14.0002 2.33337C7.5835 2.33337 2.3335 7.58337 2.3335 14C2.95183 29.4817 25.0835 29.47 25.6668 14C25.6668 7.58337 20.4168 2.33337 14.0002 2.33337ZM14.0002 23.3334C8.85516 23.3334 4.66683 19.145 4.66683 14C5.18016 1.62171 22.8202 1.62171 23.3335 14C23.3335 19.145 19.1452 23.3334 14.0002 23.3334Z" fill="#E4E4E4"/>
</svg>
