<svg width="48" height="48" viewBox="0 0 48 48" fill="none" xmlns="http://www.w3.org/2000/svg">
<circle cx="24" cy="24" r="24" fill="url(#paint0_linear_65_1324)"/>
<path d="M34.6665 18.6667L23.9998 25.3334L13.3332 18.6667V16L23.9998 22.6667L34.6665 16M34.6665 13.3334H13.3332C11.8532 13.3334 10.6665 14.52 10.6665 16V32C10.6665 32.7073 10.9475 33.3856 11.4476 33.8857C11.9476 34.3858 12.6259 34.6667 13.3332 34.6667H34.6665C35.3737 34.6667 36.052 34.3858 36.5521 33.8857C37.0522 33.3856 37.3332 32.7073 37.3332 32V16C37.3332 15.2928 37.0522 14.6145 36.5521 14.1144C36.052 13.6143 35.3737 13.3334 34.6665 13.3334Z" fill="#111111"/>
<defs>
<linearGradient id="paint0_linear_65_1324" x1="24" y1="0" x2="24" y2="48" gradientUnits="userSpaceOnUse">
<stop offset="0.75" stop-color="#EDF3FF"/>
<stop offset="1" stop-color="#D6BCFF"/>
</linearGradient>
</defs>
</svg>
