<svg width="68" height="68" viewBox="0 0 68 68" fill="none" xmlns="http://www.w3.org/2000/svg">
<circle cx="34" cy="34" r="34" fill="#0A0A0A"/>
<path d="M25.642 30.7656H21.3466C21.3598 30.1955 21.2869 29.6918 21.1278 29.2543C20.9688 28.8101 20.7301 28.4323 20.4119 28.1207C20.1004 27.8092 19.7192 27.5739 19.2685 27.4148C18.8177 27.2491 18.3106 27.1662 17.7472 27.1662C16.66 27.1662 15.6624 27.438 14.7543 27.9815C13.8461 28.5251 13.0805 29.3139 12.4574 30.348C11.8343 31.3755 11.4034 32.6184 11.1648 34.0767C10.9328 35.482 10.946 36.6586 11.2045 37.6065C11.4631 38.5545 11.9205 39.2704 12.5767 39.7543C13.2396 40.2315 14.0649 40.4702 15.0526 40.4702C15.6624 40.4702 16.2424 40.3939 16.7926 40.2415C17.3428 40.0824 17.8433 39.857 18.294 39.5653C18.7514 39.267 19.1491 38.9058 19.4872 38.4815C19.8319 38.0573 20.1004 37.5767 20.2926 37.0398H24.6179C24.3461 37.9744 23.9219 38.8759 23.3452 39.7443C22.7751 40.6127 22.0691 41.3883 21.2273 42.071C20.3854 42.7472 19.4276 43.2841 18.3537 43.6818C17.2798 44.0795 16.1032 44.2784 14.8239 44.2784C12.9744 44.2784 11.3868 43.8542 10.0611 43.0057C8.74195 42.1572 7.79072 40.9342 7.20739 39.3366C6.62405 37.7391 6.51468 35.8134 6.87926 33.5597C7.24384 31.3788 7.95644 29.5294 9.01705 28.0114C10.0843 26.4867 11.3802 25.33 12.9048 24.5412C14.4361 23.7524 16.0734 23.358 17.8168 23.358C19.0298 23.358 20.1269 23.5237 21.108 23.8551C22.089 24.1866 22.9242 24.6705 23.6136 25.3068C24.3097 25.9366 24.8333 26.7088 25.1847 27.6236C25.536 28.5384 25.6884 29.5857 25.642 30.7656ZM26.5518 44L29.9325 23.6364H37.9666C39.5045 23.6364 40.7673 23.9313 41.755 24.5213C42.7493 25.1046 43.4453 25.9167 43.843 26.9574C44.2474 27.9915 44.3402 29.1847 44.1214 30.5369C43.8961 31.8958 43.4055 33.0923 42.6499 34.1264C41.9008 35.1539 40.9264 35.956 39.7266 36.5327C38.5268 37.1094 37.1413 37.3977 35.5703 37.3977H30.4496L31.0163 33.9474H35.4411C36.2763 33.9474 36.9889 33.8049 37.5788 33.5199C38.1754 33.2282 38.6494 32.8272 39.0007 32.3168C39.352 31.7997 39.5807 31.2064 39.6868 30.5369C39.7995 29.8542 39.763 29.2609 39.5774 28.7571C39.3918 28.2533 39.0504 27.8622 38.5533 27.5838C38.0627 27.2988 37.4032 27.1562 36.5746 27.1562H33.6712L30.8572 44H26.5518ZM44.6808 44L48.0614 23.6364H56.0955C57.6334 23.6364 58.8962 23.9313 59.8839 24.5213C60.8782 25.1046 61.5742 25.9167 61.9719 26.9574C62.3763 27.9915 62.4691 29.1847 62.2504 30.5369C62.025 31.8958 61.5344 33.0923 60.7788 34.1264C60.0297 35.1539 59.0553 35.956 57.8555 36.5327C56.6557 37.1094 55.2702 37.3977 53.6992 37.3977H48.5785L49.1452 33.9474H53.57C54.4052 33.9474 55.1178 33.8049 55.7077 33.5199C56.3043 33.2282 56.7783 32.8272 57.1296 32.3168C57.4809 31.7997 57.7096 31.2064 57.8157 30.5369C57.9284 29.8542 57.8919 29.2609 57.7063 28.7571C57.5207 28.2533 57.1793 27.8622 56.6822 27.5838C56.1916 27.2988 55.5321 27.1562 54.7035 27.1562H51.8001L48.9862 44H44.6808Z" fill="#E5E5E5"/>
</svg>
