<svg width="40" height="40" viewBox="0 0 40 40" fill="none" xmlns="http://www.w3.org/2000/svg">
<path fill-rule="evenodd" clip-rule="evenodd" d="M20.0002 3.33337C10.7918 3.33337 3.3335 10.7917 3.3335 20C3.3306 23.4991 4.43012 26.9101 6.47593 29.7487C8.52175 32.5874 11.4099 34.7094 14.7302 35.8134C15.5635 35.9584 15.8752 35.4584 15.8752 35.02C15.8752 34.625 15.8535 33.3134 15.8535 31.9167C11.6668 32.6884 10.5835 30.8967 10.2502 29.9584C10.0618 29.4784 9.25017 28 8.54184 27.6034C7.9585 27.2917 7.12517 26.52 8.52017 26.5C9.8335 26.4784 10.7702 27.7084 11.0835 28.2084C12.5835 30.7284 14.9802 30.02 15.9368 29.5834C16.0835 28.5 16.5202 27.7717 17.0002 27.355C13.2918 26.9384 9.41684 25.5 9.41684 19.125C9.41684 17.3117 10.0618 15.8134 11.1252 14.6467C10.9585 14.23 10.3752 12.5217 11.2918 10.23C11.2918 10.23 12.6868 9.79171 15.8752 11.9367C17.2321 11.5611 18.6339 11.3722 20.0418 11.375C21.4585 11.375 22.8752 11.5617 24.2085 11.9367C27.3952 9.77004 28.7918 10.23 28.7918 10.23C29.7085 12.5217 29.1252 14.23 28.9585 14.6467C30.0202 15.8134 30.6668 17.2917 30.6668 19.125C30.6668 25.5217 26.7718 26.9384 23.0635 27.355C23.6668 27.875 24.1885 28.875 24.1885 30.4384C24.1885 32.6667 24.1668 34.4584 24.1668 35.0217C24.1668 35.4584 24.4802 35.9784 25.3135 35.8117C28.6213 34.6938 31.4956 32.5673 33.5321 29.7311C35.5686 26.8949 36.6649 23.4917 36.6668 20C36.6668 10.7917 29.2085 3.33337 20.0002 3.33337Z" fill="#DDDDDD"/>
</svg>
