<svg width="49" height="48" viewBox="0 0 49 48" fill="none" xmlns="http://www.w3.org/2000/svg">
<path d="M9.60292 40.8015L6.23242 3H43.2674L39.8924 40.7955L24.7274 45L9.60292 40.8015Z" fill="#E44F26"/>
<path d="M24.75 41.7871L37.005 38.3896L39.888 6.09155H24.75V41.7871Z" fill="#F1662A"/>
<path d="M24.75 20.1104H18.615L18.192 15.3629H24.75V10.7264H13.125L13.236 11.9714L14.3745 24.7469H24.75V20.1104ZM24.75 32.1509L24.729 32.1569L19.566 30.7634L19.236 27.0659H14.5815L15.231 34.3439L24.729 36.9809L24.75 36.9749V32.1509Z" fill="#EBEBEB"/>
<path d="M24.7334 20.1104V24.7469H30.4424L29.9054 30.7604L24.7334 32.1554V36.9794L34.2389 34.3439L34.3079 33.5609L35.3969 21.3554L35.5109 20.1104H24.7334ZM24.7334 10.7264V15.3629H35.9324L36.0254 14.3219L36.2369 11.9714L36.3479 10.7264H24.7334Z" fill="#FAFAFA"/>
</svg>
