<svg width="49" height="48" viewBox="0 0 49 48" fill="none" xmlns="http://www.w3.org/2000/svg">
<g clip-path="url(#clip0_65_1276)">
<path d="M0.25 0H48.25V48H0.25V0Z" fill="#F7DF1E"/>
<path d="M7.87128 32.1124L11.5444 29.8894C12.2532 31.1458 12.8978 32.2089 14.4441 32.2089C15.9263 32.2089 16.861 31.6292 16.861 29.3739V14.0368H21.3717V29.4377C21.3717 34.1096 18.633 36.2362 14.6374 36.2362C11.029 36.2362 8.93441 34.3674 7.87109 32.112M23.8217 31.629L27.4945 29.5026C28.4614 31.0815 29.718 32.2414 31.941 32.2414C33.8102 32.2414 35.002 31.3069 35.002 30.018C35.002 28.4715 33.7776 27.9236 31.7155 27.0217L30.588 26.538C27.3336 25.1529 25.1749 23.4129 25.1749 19.7398C25.1749 16.3566 27.7525 13.7788 31.7802 13.7788C34.6478 13.7788 36.7099 14.7778 38.1919 17.3876L34.6797 19.6432C33.9062 18.2578 33.0688 17.7101 31.78 17.7101C30.4588 17.7101 29.6211 18.5479 29.6211 19.6432C29.6211 20.9964 30.4588 21.5445 32.392 22.3822L33.5196 22.8654C37.354 24.5089 39.5127 26.1842 39.5127 29.9537C39.5127 34.0138 36.3229 36.2368 32.0376 36.2368C27.849 36.2368 25.1425 34.2392 23.8215 31.6292" fill="#2A046C"/>
</g>
<defs>
<clipPath id="clip0_65_1276">
<rect x="0.25" width="48" height="48" rx="4" fill="white"/>
</clipPath>
</defs>
</svg>
