<svg width="48" height="48" viewBox="0 0 48 48" fill="none" xmlns="http://www.w3.org/2000/svg">
<path d="M8.85289 40.8015L5.48389 3H42.5159L39.1424 40.7955L23.9774 45L8.85289 40.8015Z" fill="#1572B6"/>
<path d="M24 41.7871L36.255 38.3896L39.138 6.09155H24V41.7871Z" fill="#33A9DC"/>
<path d="M24 19.7865H30.135L30.558 15.039H24V10.4025H35.625L35.514 11.646L34.3755 24.423H24V19.7865Z" fill="#FAFAFA"/>
<path d="M24.0284 31.827L24.0074 31.833L18.8444 30.438L18.5144 26.7405H13.8599L14.5094 34.02L24.0059 36.657L24.0284 36.651V31.827Z" fill="#EBEBEB"/>
<path d="M29.7407 24.2264L29.1827 30.4349L24.0122 31.8299V36.6539L33.5162 34.0199L33.5867 33.2369L34.3922 24.2264H29.7407Z" fill="#FAFAFA"/>
<path d="M24.0164 10.4025V15.039H12.8174L12.7244 13.9965L12.5129 11.646L12.4019 10.4025H24.0164ZM23.9999 19.7865V24.423H18.9014L18.8084 23.3805L18.5984 21.03L18.4874 19.7865H23.9999Z" fill="#EBEBEB"/>
</svg>
