<svg width="48" height="48" viewBox="0 0 48 48" fill="none" xmlns="http://www.w3.org/2000/svg">
<path fill-rule="evenodd" clip-rule="evenodd" d="M24 4C12.95 4 4.00001 12.95 4.00001 24C3.99653 28.1988 5.31595 32.2921 7.77092 35.6984C10.2259 39.1048 13.6916 41.6512 17.676 42.976C18.676 43.15 19.05 42.55 19.05 42.024C19.05 41.55 19.024 39.976 19.024 38.3C14 39.226 12.7 37.076 12.3 35.95C12.074 35.374 11.1 33.6 10.25 33.124C9.55001 32.75 8.55001 31.824 10.224 31.8C11.8 31.774 12.924 33.25 13.3 33.85C15.1 36.874 17.976 36.024 19.124 35.5C19.3 34.2 19.824 33.326 20.4 32.826C15.95 32.326 11.3 30.6 11.3 22.95C11.3 20.774 12.074 18.976 13.35 17.576C13.15 17.076 12.45 15.026 13.55 12.276C13.55 12.276 15.224 11.75 19.05 14.324C20.6783 13.8733 22.3605 13.6465 24.05 13.65C25.75 13.65 27.45 13.874 29.05 14.324C32.874 11.724 34.55 12.276 34.55 12.276C35.65 15.026 34.95 17.076 34.75 17.576C36.024 18.976 36.8 20.75 36.8 22.95C36.8 30.626 32.126 32.326 27.676 32.826C28.4 33.45 29.026 34.65 29.026 36.526C29.026 39.2 29 41.35 29 42.026C29 42.55 29.376 43.174 30.376 42.974C34.3454 41.6325 37.7945 39.0807 40.2383 35.6772C42.6821 32.2738 43.9977 28.1899 44 24C44 12.95 35.05 4 24 4Z" fill="#2A046C"/>
</svg>
