<svg width="49" height="48" viewBox="0 0 49 48" fill="none" xmlns="http://www.w3.org/2000/svg">
<path d="M24.5 27.7111C26.5711 27.7111 28.25 26.0321 28.25 23.9611C28.25 21.89 26.5711 20.2111 24.5 20.2111C22.4289 20.2111 20.75 21.89 20.75 23.9611C20.75 26.0321 22.4289 27.7111 24.5 27.7111Z" fill="#00D8FF"/>
<path d="M24.5 32.559C19.9927 32.6676 15.4968 32.0601 11.18 30.759C9.18593 30.1269 7.3261 29.1311 5.6945 27.822C5.07168 27.375 4.55304 26.7984 4.17422 26.1319C3.7954 25.4654 3.56539 24.7248 3.5 23.961C3.5 21.4815 6.224 19.0515 10.787 17.4615C15.2194 16.0538 19.85 15.371 24.5 15.4395C29.088 15.3761 33.6567 16.0465 38.033 17.4255C39.9531 18.0384 41.7498 18.986 43.34 20.2245C43.9513 20.6515 44.4615 21.2074 44.8347 21.853C45.2079 22.4986 45.435 23.2181 45.5 23.961C45.5 26.538 42.455 29.1495 37.55 30.7725C33.3169 32.0316 28.9157 32.6341 24.5 32.559ZM24.5 17.2335C20.0513 17.1754 15.6215 17.8245 11.3765 19.1565C7.1765 20.622 5.294 22.626 5.294 23.9565C5.294 25.3485 7.3175 27.537 11.7605 29.0565C15.8901 30.2955 20.1899 30.8722 24.5 30.765C28.7246 30.8405 32.9359 30.2689 36.9875 29.07C41.6 27.5415 43.7 25.35 43.7 23.961C43.6241 23.4844 43.4502 23.0287 43.1895 22.6227C42.9288 22.2166 42.5867 21.8689 42.185 21.6015C40.7625 20.5024 39.1575 19.6625 37.4435 19.1205C33.2568 17.8071 28.8874 17.1701 24.5 17.2335Z" fill="#00D8FF"/>
<path d="M15.9799 42.6645C15.2802 42.6805 14.5887 42.5107 13.9759 42.1725C11.8279 40.9335 11.0839 37.3605 11.9854 32.613C12.9805 28.07 14.7027 23.7175 17.0854 19.7235C19.322 15.7175 22.1846 12.0948 25.5649 8.99252C27.0551 7.63518 28.7736 6.55201 30.6409 5.79302C31.3167 5.47733 32.0535 5.31372 32.7994 5.31372C33.5453 5.31372 34.2821 5.47733 34.9579 5.79302C37.1914 7.08002 37.9309 11.022 36.8884 16.0815C35.8639 20.3784 34.1864 24.4927 31.9144 28.281C29.7567 32.2398 26.9842 35.831 23.7004 38.9205C22.1566 40.3317 20.3649 41.4449 18.4159 42.204C17.6358 42.4943 16.8121 42.6501 15.9799 42.6645ZM18.6394 20.6145C16.3667 24.4391 14.7162 28.6005 13.7494 32.943C12.9199 37.3155 13.7164 39.945 14.8744 40.614C16.0744 41.3085 18.9874 40.65 22.5244 37.56C25.6596 34.6006 28.3059 31.163 30.3649 27.375C32.5413 23.7533 34.1504 19.8197 35.1364 15.711C36.1174 10.9485 35.2699 8.03252 34.0669 7.33952C33.616 7.16703 33.1342 7.08984 32.6519 7.11282C32.1697 7.13579 31.6974 7.25844 31.2649 7.47302C29.6025 8.15921 28.0741 9.13311 26.7499 10.35C23.5206 13.3218 20.7862 16.7899 18.6499 20.6235L18.6394 20.6145Z" fill="#00D8FF"/>
<path d="M33.0155 42.684C30.983 42.684 28.4015 41.454 25.7135 39.1425C22.2744 36.0116 19.3634 32.3459 17.093 28.287C14.7397 24.3482 13.0311 20.0586 12.032 15.5805C11.5997 13.6101 11.5195 11.5788 11.795 9.58047C11.8598 8.83941 12.0859 8.12149 12.4575 7.47706C12.8291 6.83263 13.3371 6.27728 13.946 5.84997C16.1765 4.55847 19.961 5.88597 23.8235 9.31497C27.0344 12.3482 29.7611 15.856 31.9085 19.716C34.2606 23.5627 35.9871 27.7584 37.0235 32.1465C37.4752 34.189 37.5449 36.2975 37.229 38.3655C37.1542 39.1282 36.9151 39.8656 36.5283 40.5272C36.1414 41.1887 35.616 41.7587 34.988 42.198C34.385 42.5314 33.7044 42.6991 33.0155 42.684ZM18.6455 27.384C20.8237 31.2629 23.6044 34.7711 26.8835 37.7775C30.257 40.68 32.933 41.304 34.0835 40.6275C35.2835 39.93 36.1685 37.083 35.2565 32.4765C34.2576 28.2868 32.6016 24.2817 30.35 20.61C28.3008 16.9157 25.6981 13.5568 22.6325 10.65C18.9965 7.42197 16.0475 6.70047 14.846 7.39647C14.4717 7.70098 14.1646 8.07968 13.9438 8.50874C13.7231 8.93779 13.5936 9.40791 13.5635 9.88947C13.3252 11.6716 13.4029 13.4818 13.793 15.237C14.7543 19.5194 16.3929 23.621 18.647 27.387L18.6455 27.384Z" fill="#00D8FF"/>
</svg>
