<svg width="49" height="48" viewBox="0 0 49 48" fill="none" xmlns="http://www.w3.org/2000/svg">
<path d="M7.396 24C7.396 30.876 11.396 36.8 17.18 39.616L8.904 16.938C7.91017 19.1597 7.39631 21.5661 7.396 24ZM24.75 41.354C26.7148 41.3504 28.6651 41.0178 30.52 40.37L30.396 40.138L25.056 25.524L19.856 40.646C21.396 41.106 23.042 41.354 24.75 41.354ZM27.134 15.86L33.412 34.52L35.15 28.736C35.89 26.336 36.458 24.614 36.458 23.122C36.458 20.968 35.688 19.49 35.042 18.352C34.15 16.906 33.334 15.692 33.334 14.274C33.334 12.674 34.534 11.198 36.258 11.198H36.472C33.274 8.26405 29.09 6.63929 24.75 6.646C21.8759 6.64572 19.0468 7.35986 16.5171 8.72418C13.9875 10.0885 11.8366 12.0602 10.258 14.462L11.366 14.492C13.18 14.492 15.98 14.262 15.98 14.262C16.934 14.216 17.042 15.584 16.104 15.692C16.104 15.692 15.164 15.816 14.104 15.862L20.444 34.662L24.244 23.278L21.534 15.862C20.928 15.8279 20.3231 15.7765 19.72 15.708C18.78 15.648 18.888 14.216 19.826 14.262C19.826 14.262 22.688 14.492 24.396 14.492C26.212 14.492 29.012 14.262 29.012 14.262C29.95 14.216 30.072 15.584 29.134 15.692C29.134 15.692 28.196 15.8 27.134 15.862M33.474 39C37.3843 36.727 40.2527 33.0171 41.4679 28.6604C42.6831 24.3038 42.1493 19.6448 39.98 15.676C40.2543 18.401 39.8417 21.1514 38.78 23.676L33.474 39ZM24.75 44C19.4457 44 14.3586 41.8929 10.6079 38.1421C6.85714 34.3914 4.75 29.3043 4.75 24C4.75 18.6957 6.85714 13.6086 10.6079 9.85786C14.3586 6.10714 19.4457 4 24.75 4C30.0543 4 35.1414 6.10714 38.8921 9.85786C42.6429 13.6086 44.75 18.6957 44.75 24C44.75 29.3043 42.6429 34.3914 38.8921 38.1421C35.1414 41.8929 30.0543 44 24.75 44Z" fill="#2A046C"/>
</svg>
