<svg width="49" height="48" viewBox="0 0 49 48" fill="none" xmlns="http://www.w3.org/2000/svg">
<path fill-rule="evenodd" clip-rule="evenodd" d="M43.7458 22.22L26.2798 4.75197C25.7963 4.27016 25.1414 3.99963 24.4588 3.99963C23.7762 3.99963 23.1214 4.27016 22.6378 4.75197L19.0118 8.38197L23.6118 12.982C24.1542 12.798 24.7373 12.77 25.2948 12.9011C25.8524 13.0321 26.3619 13.317 26.7655 13.7234C27.1691 14.1297 27.4506 14.6411 27.578 15.1995C27.7053 15.7579 27.6734 16.3408 27.4858 16.882L31.9198 21.316C32.5824 21.0882 33.303 21.0944 33.9616 21.3336C34.6202 21.5727 35.1769 22.0303 35.5389 22.6301C35.901 23.23 36.0466 23.9358 35.9514 24.6299C35.8562 25.324 35.526 25.9646 35.0158 26.4448C34.5056 26.925 33.8462 27.2158 33.1476 27.2688C32.4489 27.3218 31.7533 27.1338 31.1765 26.736C30.5997 26.3383 30.1766 25.7549 29.9778 25.0831C29.7789 24.4112 29.8164 23.6915 30.0838 23.044L25.9478 18.908V29.79C26.5763 30.1009 27.0791 30.6179 27.3726 31.2547C27.6661 31.8914 27.7324 32.6096 27.5606 33.2894C27.3887 33.9691 26.9891 34.5695 26.4283 34.9903C25.8675 35.4111 25.1793 35.627 24.4786 35.602C23.7779 35.577 23.107 35.3125 22.5776 34.8528C22.0482 34.393 21.6924 33.7657 21.5695 33.0754C21.4466 32.3851 21.564 31.6735 21.9022 31.0593C22.2403 30.4451 22.7788 29.9653 23.4278 29.7V18.72C23.0532 18.5671 22.7126 18.3414 22.4258 18.056C22.139 17.7705 21.9116 17.4311 21.7569 17.0572C21.6021 16.6834 21.5231 16.2825 21.5243 15.8779C21.5254 15.4733 21.6069 15.0729 21.7638 14.7L17.2298 10.162L5.25382 22.136C4.7714 22.6196 4.50049 23.2749 4.50049 23.958C4.50049 24.6411 4.7714 25.2963 5.25382 25.78L22.7198 43.244C23.2034 43.7258 23.8582 43.9963 24.5408 43.9963C25.2234 43.9963 25.8783 43.7258 26.3618 43.244L43.7458 25.86C44.2282 25.3763 44.4992 24.7211 44.4992 24.038C44.4992 23.3549 44.2282 22.6996 43.7458 22.216" fill="#2A046C"/>
</svg>
