<svg width="48" height="48" viewBox="0 0 48 48" fill="none" xmlns="http://www.w3.org/2000/svg">
<circle cx="24" cy="24" r="24" fill="url(#paint0_linear_65_1330)"/>
<g clip-path="url(#clip0_65_1330)">
<path fill-rule="evenodd" clip-rule="evenodd" d="M30.0695 37.5107C28.1495 37.44 22.7082 36.688 17.0095 30.9907C11.3122 25.292 10.5615 19.852 10.4895 17.9307C10.3828 15.0027 12.6255 12.1587 15.2162 11.048C15.5281 10.9133 15.8698 10.862 16.2075 10.8992C16.5453 10.9364 16.8676 11.0607 17.1428 11.26C19.2762 12.8147 20.7482 15.1667 22.0122 17.016C22.2903 17.4223 22.4092 17.9168 22.3462 18.4051C22.2833 18.8934 22.0429 19.3415 21.6708 19.664L19.0695 21.596C18.9438 21.6868 18.8554 21.8201 18.8205 21.9711C18.7857 22.1222 18.8069 22.2808 18.8802 22.4174C19.4695 23.488 20.5175 25.0827 21.7175 26.2827C22.9175 27.4827 24.5882 28.6 25.7335 29.256C25.8771 29.3367 26.0461 29.3592 26.2058 29.319C26.3655 29.2788 26.5038 29.179 26.5922 29.04L28.2855 26.4627C28.5968 26.0492 29.0561 25.7721 29.5671 25.6896C30.0781 25.6071 30.6012 25.7255 31.0268 26.02C32.9028 27.3187 35.0922 28.7654 36.6948 30.8174C36.9103 31.0946 37.0474 31.4246 37.0917 31.7729C37.1361 32.1212 37.086 32.475 36.9468 32.7974C35.8308 35.4014 33.0068 37.6187 30.0695 37.5107Z" fill="#0A0A0A"/>
</g>
<defs>
<linearGradient id="paint0_linear_65_1330" x1="24" y1="0" x2="24" y2="48" gradientUnits="userSpaceOnUse">
<stop offset="0.75" stop-color="#EDF3FF"/>
<stop offset="1" stop-color="#D6BCFF"/>
</linearGradient>
<clipPath id="clip0_65_1330">
<rect width="32" height="32" fill="white" transform="translate(8 8)"/>
</clipPath>
</defs>
</svg>
