<svg width="44" height="40" viewBox="0 0 44 40" fill="none" xmlns="http://www.w3.org/2000/svg">
<path d="M39.4998 39.5C40.6601 39.5 41.7729 39.0391 42.5934 38.2186C43.4138 37.3981 43.8748 36.2853 43.8748 35.125V24.4412C43.8748 23.2809 43.4138 22.1681 42.5934 21.3477C41.7729 20.5272 40.6601 20.0662 39.4998 20.0662H33.4273C33.4273 18.5306 33.5192 16.9906 33.6985 15.455C33.9698 13.8275 34.4248 12.3794 35.0548 11.115C35.6892 9.84625 36.5029 8.85312 37.5004 8.12687C38.4935 7.31313 39.7579 6.90625 41.2979 6.90625V0.125C38.7648 0.125 36.551 0.6675 34.6479 1.7525C32.7613 2.8265 31.1393 4.30948 29.901 6.0925C28.6582 8.05825 27.7422 10.2124 27.1885 12.4713C26.6307 14.964 26.3577 17.5119 26.3748 20.0662V35.125C26.3748 36.2853 26.8357 37.3981 27.6562 38.2186C28.4767 39.0391 29.5895 39.5 30.7498 39.5H39.4998ZM13.2498 39.5C14.4101 39.5 15.5229 39.0391 16.3434 38.2186C17.1638 37.3981 17.6248 36.2853 17.6248 35.125V24.4412C17.6248 23.2809 17.1638 22.1681 16.3434 21.3477C15.5229 20.5272 14.4101 20.0662 13.2498 20.0662H7.17728C7.17728 18.5306 7.26916 16.9906 7.44853 15.455C7.71978 13.8275 8.17478 12.3794 8.80478 11.115C9.43916 9.84625 10.2529 8.85312 11.2504 8.12687C12.2435 7.31313 13.5079 6.90625 15.0479 6.90625V0.125C12.5148 0.125 10.301 0.6675 8.39791 1.7525C6.51135 2.8265 4.88934 4.30948 3.65103 6.0925C2.4082 8.05825 1.49216 10.2124 0.938532 12.4713C0.380658 14.964 0.107658 17.5119 0.124782 20.0662V35.125C0.124782 36.2853 0.585718 37.3981 1.40619 38.2186C2.22666 39.0391 3.33946 39.5 4.49978 39.5H13.2498Z" fill="#9B9B9B"/>
</svg>
