<svg width="48" height="48" viewBox="0 0 48 48" fill="none" xmlns="http://www.w3.org/2000/svg">
<circle cx="24" cy="24" r="24" fill="#28366C"/>
<path d="M20 24H20.009M23.995 24H24.005M27.991 24H28M30 33C31.232 33 32.231 31.849 32.231 30.429C32.231 28.181 32.131 26.687 33.673 24.909C34.109 24.407 34.109 23.593 33.673 23.091C32.131 21.314 32.231 19.819 32.231 17.571C32.231 16.151 31.232 15 30 15M18 33C16.768 33 15.769 31.849 15.769 30.429C15.769 28.181 15.869 26.687 14.327 24.909C13.891 24.407 13.891 23.593 14.327 23.091C15.835 21.353 15.769 19.84 15.769 17.57C15.769 16.151 16.768 15 18 15" stroke="#EEF1F3" stroke-width="1.2" stroke-linecap="round" stroke-linejoin="round"/>
</svg>
