<svg width="48" height="48" viewBox="0 0 48 48" fill="none" xmlns="http://www.w3.org/2000/svg">
<rect width="48" height="48" rx="8" fill="#BECBFE"/>
<mask id="path-2-outside-1_65_1209" maskUnits="userSpaceOnUse" x="5.5" y="12" width="36" height="24" fill="black">
<rect fill="white" x="5.5" y="12" width="36" height="24"/>
<path d="M14.5483 34.3381C12.9773 34.3314 11.6349 33.9171 10.5213 33.0952C9.40767 32.2732 8.55587 31.0767 7.96591 29.5057C7.37595 27.9347 7.08097 26.0421 7.08097 23.8281C7.08097 21.6207 7.37595 19.7348 7.96591 18.1705C8.5625 16.6061 9.41761 15.4129 10.5312 14.5909C11.6515 13.7689 12.9905 13.358 14.5483 13.358C16.1061 13.358 17.4418 13.7723 18.5554 14.6009C19.669 15.4228 20.5208 16.616 21.1108 18.1804C21.7074 19.7382 22.0057 21.6207 22.0057 23.8281C22.0057 26.0488 21.7107 27.9446 21.1207 29.5156C20.5308 31.08 19.679 32.2765 18.5653 33.1051C17.4517 33.9271 16.1127 34.3381 14.5483 34.3381ZM14.5483 31.6832C15.9271 31.6832 17.0043 31.0104 17.7798 29.6648C18.562 28.3191 18.9531 26.3736 18.9531 23.8281C18.9531 22.1378 18.7741 20.7093 18.4162 19.5426C18.0649 18.3693 17.5578 17.4811 16.8949 16.8778C16.2386 16.268 15.4564 15.9631 14.5483 15.9631C13.1761 15.9631 12.099 16.6392 11.3168 17.9915C10.5346 19.3437 10.1402 21.2893 10.1335 23.8281C10.1335 25.5251 10.3092 26.9602 10.6605 28.1335C11.0185 29.3002 11.5256 30.1851 12.1818 30.7884C12.8381 31.3849 13.6269 31.6832 14.5483 31.6832ZM25.1055 30.0227V27.5369L33.9052 13.6364H35.864V17.2955H34.6211L28.3271 27.2585V27.4176H40.3881V30.0227H25.1055ZM34.7603 34V29.267L34.7802 28.1335V13.6364H37.6935V34H34.7603Z"/>
</mask>
<path d="M14.5483 34.3381L14.5441 35.3381H14.5483V34.3381ZM7.96591 29.5057L8.90208 29.1541L7.96591 29.5057ZM7.96591 18.1705L7.03154 17.8141L7.03023 17.8176L7.96591 18.1705ZM10.5312 14.5909L9.93968 13.7847L9.9374 13.7863L10.5312 14.5909ZM18.5554 14.6009L17.9585 15.4031L17.9615 15.4054L18.5554 14.6009ZM21.1108 18.1804L20.1751 18.5333L20.1769 18.538L21.1108 18.1804ZM21.1207 29.5156L22.0564 29.8685L22.0569 29.8672L21.1207 29.5156ZM18.5653 33.1051L19.1592 33.9097L19.1623 33.9074L18.5653 33.1051ZM17.7798 29.6648L16.9153 29.1622L16.9134 29.1654L17.7798 29.6648ZM18.4162 19.5426L17.4582 19.8295L17.4602 19.8359L18.4162 19.5426ZM16.8949 16.8778L16.2141 17.6104L16.2218 17.6174L16.8949 16.8778ZM11.3168 17.9915L10.4511 17.4908H10.4511L11.3168 17.9915ZM10.1335 23.8281L9.13352 23.8255V23.8281H10.1335ZM10.6605 28.1335L9.70251 28.4204L9.7045 28.4268L10.6605 28.1335ZM12.1818 30.7884L11.5051 31.5246L11.5091 31.5283L12.1818 30.7884ZM14.5525 33.3381C13.1639 33.3322 12.0354 32.9698 11.1152 32.2906L9.92745 33.8997C11.2345 34.8645 12.7906 35.3307 14.5441 35.3381L14.5525 33.3381ZM11.1152 32.2906C10.1873 31.6057 9.43866 30.583 8.90208 29.1541L7.02974 29.8572C7.67308 31.5704 8.62807 32.9407 9.92745 33.8997L11.1152 32.2906ZM8.90208 29.1541C8.36541 27.725 8.08097 25.9583 8.08097 23.8281H6.08097C6.08097 26.126 6.38648 28.1443 7.02974 29.8572L8.90208 29.1541ZM8.08097 23.8281C8.08097 21.7048 8.36535 19.9452 8.90159 18.5233L7.03023 17.8176C6.38654 19.5245 6.08097 21.5366 6.08097 23.8281H8.08097ZM8.90027 18.5268C9.44305 17.1035 10.1952 16.0819 11.1251 15.3955L9.9374 13.7863C8.64005 14.7439 7.68195 16.1086 7.03155 17.8141L8.90027 18.5268ZM11.1228 15.3972C12.051 14.7161 13.1763 14.358 14.5483 14.358V12.358C12.8047 12.358 11.252 12.8217 9.93968 13.7847L11.1228 15.3972ZM14.5483 14.358C15.9186 14.358 17.0382 14.7185 17.9585 15.4031L19.1523 13.7986C17.8453 12.8261 16.2936 12.358 14.5483 12.358V14.358ZM17.9615 15.4054C18.8904 16.091 19.6389 17.1114 20.1751 18.5333L22.0465 17.8275C21.4028 16.1206 20.4476 14.7546 19.1493 13.7963L17.9615 15.4054ZM20.1769 18.538C20.7182 19.9513 21.0057 21.7057 21.0057 23.8281H23.0057C23.0057 21.5358 22.6966 19.525 22.0447 17.8228L20.1769 18.538ZM21.0057 23.8281C21.0057 25.9653 20.7211 27.7353 20.1846 29.1641L22.0569 29.8672C22.7003 28.1539 23.0057 26.1322 23.0057 23.8281H21.0057ZM20.1851 29.1628C19.6487 30.585 18.8995 31.61 17.9684 32.3028L19.1623 33.9074C20.4584 32.943 21.4128 31.575 22.0564 29.8685L20.1851 29.1628ZM17.9715 32.3005C17.0519 32.9793 15.928 33.3381 14.5483 33.3381V35.3381C16.2973 35.3381 17.8516 34.8748 19.1592 33.9097L17.9715 32.3005ZM14.5483 32.6832C16.3359 32.6832 17.7193 31.7724 18.6462 30.1641L16.9134 29.1654C16.2892 30.2485 15.5182 30.6832 14.5483 30.6832V32.6832ZM18.6444 30.1673C19.5549 28.601 19.9531 26.4498 19.9531 23.8281H17.9531C17.9531 26.2974 17.5692 28.0373 16.9153 29.1622L18.6444 30.1673ZM19.9531 23.8281C19.9531 22.0736 19.7681 20.5397 19.3722 19.2493L17.4602 19.8359C17.7802 20.8789 17.9531 22.2019 17.9531 23.8281H19.9531ZM19.3742 19.2558C18.9891 17.9698 18.4057 16.9006 17.5679 16.1382L16.2218 17.6174C16.7098 18.0615 17.1406 18.7688 17.4582 19.8295L19.3742 19.2558ZM17.5756 16.1453C16.7316 15.3609 15.7051 14.9631 14.5483 14.9631V16.9631C15.2077 16.9631 15.7457 17.175 16.2142 17.6104L17.5756 16.1453ZM14.5483 14.9631C12.7636 14.9631 11.3824 15.8808 10.4511 17.4908L12.1824 18.4922C12.8155 17.3976 13.5887 16.9631 14.5483 16.9631V14.9631ZM10.4511 17.4908C9.54273 19.0613 9.14036 21.2097 9.13353 23.8255L11.1335 23.8307C11.1399 21.3689 11.5264 19.6262 12.1824 18.4922L10.4511 17.4908ZM9.13352 23.8281C9.13352 25.5878 9.31493 27.1259 9.70254 28.4204L11.6185 27.8467C11.3034 26.7945 11.1335 25.4624 11.1335 23.8281H9.13352ZM9.7045 28.4268C10.0961 29.7032 10.6785 30.7647 11.5051 31.5246L12.8586 30.0521C12.3727 29.6055 11.9408 28.8972 11.6165 27.8402L9.7045 28.4268ZM11.5091 31.5283C12.3572 32.2992 13.3888 32.6832 14.5483 32.6832V30.6832C13.865 30.6832 13.3189 30.4706 12.8545 30.0484L11.5091 31.5283ZM25.1055 30.0227H24.1055V31.0227H25.1055V30.0227ZM25.1055 27.5369L24.2605 27.0021L24.1055 27.247V27.5369H25.1055ZM33.9052 13.6364V12.6364H33.3547L33.0603 13.1015L33.9052 13.6364ZM35.864 13.6364H36.864V12.6364H35.864V13.6364ZM35.864 17.2955V18.2955H36.864V17.2955H35.864ZM34.6211 17.2955V16.2955H34.07L33.7757 16.7614L34.6211 17.2955ZM28.3271 27.2585L27.4816 26.7244L27.3271 26.9691V27.2585H28.3271ZM28.3271 27.4176H27.3271V28.4176H28.3271V27.4176ZM40.3881 27.4176H41.3881V26.4176H40.3881V27.4176ZM40.3881 30.0227V31.0227H41.3881V30.0227H40.3881ZM34.7603 34H33.7603V35H34.7603V34ZM34.7603 29.267L33.7605 29.2495L33.7603 29.2583V29.267H34.7603ZM34.7802 28.1335L35.78 28.1511L35.7802 28.1423V28.1335H34.7802ZM34.7802 13.6364V12.6364H33.7802V13.6364H34.7802ZM37.6935 13.6364H38.6935V12.6364H37.6935V13.6364ZM37.6935 34V35H38.6935V34H37.6935ZM26.1055 30.0227V27.5369H24.1055V30.0227H26.1055ZM25.9504 28.0718L34.7501 14.1712L33.0603 13.1015L24.2605 27.0021L25.9504 28.0718ZM33.9052 14.6364H35.864V12.6364H33.9052V14.6364ZM34.864 13.6364V17.2955H36.864V13.6364H34.864ZM35.864 16.2955H34.6211V18.2955H35.864V16.2955ZM33.7757 16.7614L27.4816 26.7244L29.1725 27.7926L35.4665 17.8295L33.7757 16.7614ZM27.3271 27.2585V27.4176H29.3271V27.2585H27.3271ZM28.3271 28.4176H40.3881V26.4176H28.3271V28.4176ZM39.3881 27.4176V30.0227H41.3881V27.4176H39.3881ZM40.3881 29.0227H25.1055V31.0227H40.3881V29.0227ZM35.7603 34V29.267H33.7603V34H35.7603ZM35.7601 29.2846L35.78 28.1511L33.7803 28.116L33.7605 29.2495L35.7601 29.2846ZM35.7802 28.1335V13.6364H33.7802V28.1335H35.7802ZM34.7802 14.6364H37.6935V12.6364H34.7802V14.6364ZM36.6935 13.6364V34H38.6935V13.6364H36.6935ZM37.6935 33H34.7603V35H37.6935V33Z" fill="#212121" mask="url(#path-2-outside-1_65_1209)"/>
</svg>
