<svg width="48" height="48" viewBox="0 0 48 48" fill="none" xmlns="http://www.w3.org/2000/svg">
<circle cx="24" cy="24" r="24" fill="#28366C"/>
<path d="M23.53 34H22.47C18.478 34 16.481 34 15.24 32.828C14 31.657 14 29.771 14 26V22C14 18.229 14 16.343 15.24 15.172C16.481 14 18.478 14 22.47 14H23.53C27.523 14 29.519 14 30.76 15.172C32 16.343 32 18.229 32 22V22.5M19 19H27M19 24H24" stroke="#EEF1F3" stroke-width="1.2" stroke-linecap="round" stroke-linejoin="round"/>
<path d="M30 34V32.714C29.4564 32.7178 28.9201 32.5897 28.4369 32.3406C27.9537 32.0915 27.5382 31.729 27.226 31.284M30 32.713C30.5436 32.7168 31.0799 32.5887 31.5631 32.3396C32.0463 32.0905 32.4618 31.728 32.774 31.283M30 26.285C31.157 26.285 32.176 26.853 32.774 27.715C33.1383 28.2382 33.3337 28.8614 33.3337 29.499C33.3337 30.1366 33.1383 30.7588 32.774 31.282L34 32.07M27.226 27.717C27.5382 27.272 27.9537 26.9095 28.4369 26.6604C28.9201 26.4113 29.4564 26.2832 30 26.287V25M34 26.929L32.774 27.717M26 32.07L27.226 31.282C26.8617 30.7588 26.6663 30.1366 26.6663 29.499C26.6663 28.8614 26.8617 28.2392 27.226 27.716M26 26.93L27.226 27.718" stroke="#EEF1F3" stroke-width="1.2" stroke-linecap="round" stroke-linejoin="round"/>
</svg>
