<svg width="48" height="48" viewBox="0 0 48 48" fill="none" xmlns="http://www.w3.org/2000/svg">
<rect width="48" height="48" rx="8" fill="#BECBFE"/>
<mask id="path-2-outside-1_65_1219" maskUnits="userSpaceOnUse" x="6" y="12" width="35" height="24" fill="black">
<rect fill="white" x="6" y="12" width="35" height="24"/>
<path d="M15.0483 34.3381C13.4773 34.3314 12.1349 33.9171 11.0213 33.0952C9.90767 32.2732 9.05587 31.0767 8.46591 29.5057C7.87595 27.9347 7.58097 26.0421 7.58097 23.8281C7.58097 21.6207 7.87595 19.7348 8.46591 18.1705C9.0625 16.6061 9.91761 15.4129 11.0312 14.5909C12.1515 13.7689 13.4905 13.358 15.0483 13.358C16.6061 13.358 17.9418 13.7723 19.0554 14.6009C20.169 15.4228 21.0208 16.616 21.6108 18.1804C22.2074 19.7382 22.5057 21.6207 22.5057 23.8281C22.5057 26.0488 22.2107 27.9446 21.6207 29.5156C21.0308 31.08 20.179 32.2765 19.0653 33.1051C17.9517 33.9271 16.6127 34.3381 15.0483 34.3381ZM15.0483 31.6832C16.4271 31.6832 17.5043 31.0104 18.2798 29.6648C19.062 28.3191 19.4531 26.3736 19.4531 23.8281C19.4531 22.1378 19.2741 20.7093 18.9162 19.5426C18.5649 18.3693 18.0578 17.4811 17.3949 16.8778C16.7386 16.268 15.9564 15.9631 15.0483 15.9631C13.6761 15.9631 12.599 16.6392 11.8168 17.9915C11.0346 19.3437 10.6402 21.2893 10.6335 23.8281C10.6335 25.5251 10.8092 26.9602 11.1605 28.1335C11.5185 29.3002 12.0256 30.1851 12.6818 30.7884C13.3381 31.3849 14.1269 31.6832 15.0483 31.6832ZM32.7546 34.2784C31.5084 34.2784 30.3881 34.0398 29.3938 33.5625C28.4061 33.0786 27.6173 32.4157 27.0273 31.5739C26.4374 30.732 26.1225 29.7708 26.0827 28.6903H29.0657C29.1386 29.5653 29.5264 30.2846 30.229 30.848C30.9317 31.4115 31.7736 31.6932 32.7546 31.6932C33.5368 31.6932 34.2295 31.5142 34.8327 31.1562C35.4426 30.7917 35.9199 30.2912 36.2646 29.6548C36.6159 29.0185 36.7915 28.2926 36.7915 27.4773C36.7915 26.6487 36.6126 25.9096 36.2546 25.2599C35.8967 24.6103 35.4028 24.0999 34.7731 23.7287C34.15 23.3575 33.4341 23.1686 32.6254 23.1619C32.0089 23.1619 31.3891 23.268 30.766 23.4801C30.1429 23.6922 29.6391 23.9706 29.2546 24.3153L26.4407 23.8977L27.5842 13.6364H38.7802V16.2713H30.1396L29.4933 21.9688H29.6126C30.0103 21.5843 30.5373 21.2628 31.1935 21.0043C31.8564 20.7457 32.5657 20.6165 33.3214 20.6165C34.561 20.6165 35.6647 20.9115 36.6325 21.5014C37.6069 22.0914 38.3725 22.8968 38.9293 23.9176C39.4928 24.9318 39.7712 26.0985 39.7646 27.4176C39.7712 28.7367 39.4729 29.9134 38.8697 30.9474C38.2731 31.9815 37.4445 32.7969 36.3839 33.3935C35.3299 33.9834 34.1201 34.2784 32.7546 34.2784Z"/>
</mask>
<path d="M15.0483 34.3381L15.0441 35.3381H15.0483V34.3381ZM8.46591 29.5057L9.40208 29.1541L9.40208 29.1541L8.46591 29.5057ZM8.46591 18.1705L7.53154 17.8141L7.53023 17.8176L8.46591 18.1705ZM11.0312 14.5909L10.4397 13.7847L10.4374 13.7863L11.0312 14.5909ZM19.0554 14.6009L18.4585 15.4031L18.4615 15.4054L19.0554 14.6009ZM21.6108 18.1804L20.6751 18.5333L20.6769 18.538L21.6108 18.1804ZM21.6207 29.5156L22.5564 29.8685L22.5569 29.8672L21.6207 29.5156ZM19.0653 33.1051L19.6592 33.9097L19.6623 33.9074L19.0653 33.1051ZM18.2798 29.6648L17.4153 29.1622L17.4134 29.1654L18.2798 29.6648ZM18.9162 19.5426L17.9582 19.8295L17.9602 19.8359L18.9162 19.5426ZM17.3949 16.8778L16.7141 17.6104L16.7218 17.6174L17.3949 16.8778ZM11.8168 17.9915L10.9511 17.4908L10.9511 17.4908L11.8168 17.9915ZM10.6335 23.8281L9.63352 23.8255V23.8281H10.6335ZM11.1605 28.1335L10.2025 28.4204L10.2045 28.4268L11.1605 28.1335ZM12.6818 30.7884L12.0051 31.5246L12.0091 31.5283L12.6818 30.7884ZM15.0525 33.3381C13.6639 33.3322 12.5354 32.9698 11.6152 32.2906L10.4275 33.8997C11.7345 34.8645 13.2906 35.3307 15.0441 35.3381L15.0525 33.3381ZM11.6152 32.2906C10.6873 31.6057 9.93866 30.583 9.40208 29.1541L7.52974 29.8572C8.17308 31.5704 9.12807 32.9407 10.4275 33.8997L11.6152 32.2906ZM9.40208 29.1541C8.86541 27.725 8.58097 25.9583 8.58097 23.8281H6.58097C6.58097 26.126 6.88648 28.1443 7.52974 29.8572L9.40208 29.1541ZM8.58097 23.8281C8.58097 21.7048 8.86535 19.9452 9.40159 18.5233L7.53023 17.8176C6.88654 19.5245 6.58097 21.5366 6.58097 23.8281H8.58097ZM9.40027 18.5268C9.94305 17.1035 10.6952 16.0819 11.6251 15.3955L10.4374 13.7863C9.14005 14.7439 8.18195 16.1086 7.53155 17.8141L9.40027 18.5268ZM11.6228 15.3972C12.551 14.7161 13.6763 14.358 15.0483 14.358V12.358C13.3047 12.358 11.752 12.8217 10.4397 13.7847L11.6228 15.3972ZM15.0483 14.358C16.4186 14.358 17.5382 14.7185 18.4585 15.4031L19.6523 13.7986C18.3453 12.8261 16.7936 12.358 15.0483 12.358V14.358ZM18.4615 15.4054C19.3904 16.091 20.1389 17.1114 20.6751 18.5333L22.5465 17.8275C21.9028 16.1206 20.9476 14.7546 19.6493 13.7963L18.4615 15.4054ZM20.6769 18.538C21.2182 19.9513 21.5057 21.7057 21.5057 23.8281H23.5057C23.5057 21.5358 23.1966 19.525 22.5447 17.8228L20.6769 18.538ZM21.5057 23.8281C21.5057 25.9653 21.2211 27.7353 20.6846 29.1641L22.5569 29.8672C23.2003 28.1539 23.5057 26.1322 23.5057 23.8281H21.5057ZM20.6851 29.1628C20.1487 30.585 19.3995 31.61 18.4684 32.3028L19.6623 33.9074C20.9584 32.943 21.9128 31.575 22.5564 29.8685L20.6851 29.1628ZM18.4715 32.3005C17.5519 32.9793 16.428 33.3381 15.0483 33.3381V35.3381C16.7973 35.3381 18.3516 34.8748 19.6592 33.9097L18.4715 32.3005ZM15.0483 32.6832C16.8359 32.6832 18.2193 31.7724 19.1462 30.1641L17.4134 29.1654C16.7892 30.2485 16.0182 30.6832 15.0483 30.6832V32.6832ZM19.1444 30.1673C20.0549 28.601 20.4531 26.4498 20.4531 23.8281H18.4531C18.4531 26.2974 18.0692 28.0373 17.4153 29.1622L19.1444 30.1673ZM20.4531 23.8281C20.4531 22.0736 20.2681 20.5397 19.8722 19.2493L17.9602 19.8359C18.2802 20.8789 18.4531 22.2019 18.4531 23.8281H20.4531ZM19.8742 19.2558C19.4891 17.9698 18.9057 16.9006 18.0679 16.1382L16.7218 17.6174C17.2098 18.0615 17.6406 18.7688 17.9582 19.8295L19.8742 19.2558ZM18.0756 16.1453C17.2316 15.3609 16.2051 14.9631 15.0483 14.9631V16.9631C15.7077 16.9631 16.2457 17.175 16.7142 17.6104L18.0756 16.1453ZM15.0483 14.9631C13.2636 14.9631 11.8824 15.8808 10.9511 17.4908L12.6824 18.4922C13.3155 17.3976 14.0887 16.9631 15.0483 16.9631V14.9631ZM10.9511 17.4908C10.0427 19.0613 9.64036 21.2097 9.63353 23.8255L11.6335 23.8307C11.6399 21.3689 12.0264 19.6262 12.6824 18.4922L10.9511 17.4908ZM9.63352 23.8281C9.63352 25.5878 9.81493 27.1259 10.2025 28.4204L12.1185 27.8467C11.8034 26.7945 11.6335 25.4624 11.6335 23.8281H9.63352ZM10.2045 28.4268C10.5961 29.7032 11.1785 30.7647 12.0051 31.5246L13.3586 30.0521C12.8727 29.6055 12.4408 28.8972 12.1165 27.8402L10.2045 28.4268ZM12.0091 31.5283C12.8572 32.2992 13.8888 32.6832 15.0483 32.6832V30.6832C14.365 30.6832 13.8189 30.4706 13.3545 30.0484L12.0091 31.5283ZM29.3938 33.5625L28.9538 34.4605L28.9611 34.464L29.3938 33.5625ZM27.0273 31.5739L26.2084 32.1478L26.2084 32.1478L27.0273 31.5739ZM26.0827 28.6903V27.6903H25.0453L25.0834 28.7271L26.0827 28.6903ZM29.0657 28.6903L30.0622 28.6073L29.9858 27.6903H29.0657V28.6903ZM30.229 30.848L29.6035 31.6282L29.6035 31.6282L30.229 30.848ZM34.8327 31.1562L35.3431 32.0162L35.3459 32.0146L34.8327 31.1562ZM36.2646 29.6548L35.3891 29.1715L35.3853 29.1785L36.2646 29.6548ZM36.2546 25.2599L37.1305 24.7773L37.1305 24.7773L36.2546 25.2599ZM34.7731 23.7287L34.2613 24.5878L34.2653 24.5902L34.7731 23.7287ZM32.6254 23.1619L32.6336 22.1619H32.6254V23.1619ZM30.766 23.4801L30.4437 22.5335L30.4437 22.5335L30.766 23.4801ZM29.2546 24.3153L29.1078 25.3045L29.5724 25.3735L29.9222 25.0599L29.2546 24.3153ZM26.4407 23.8977L25.4468 23.787L25.3401 24.7453L26.2939 24.8869L26.4407 23.8977ZM27.5842 13.6364V12.6364H26.6894L26.5903 13.5256L27.5842 13.6364ZM38.7802 13.6364H39.7802V12.6364H38.7802V13.6364ZM38.7802 16.2713V17.2713H39.7802V16.2713H38.7802ZM30.1396 16.2713V15.2713H29.2466L29.1459 16.1586L30.1396 16.2713ZM29.4933 21.9688L28.4996 21.856L28.3734 22.9688H29.4933V21.9688ZM29.6126 21.9688V22.9688H30.0169L30.3076 22.6877L29.6126 21.9688ZM31.1935 21.0043L30.8302 20.0726L30.827 20.0739L31.1935 21.0043ZM36.6325 21.5014L36.112 22.3553L36.1145 22.3569L36.6325 21.5014ZM38.9293 23.9176L38.0514 24.3965L38.0552 24.4033L38.9293 23.9176ZM39.7646 27.4176L38.7645 27.4126L38.7646 27.4226L39.7646 27.4176ZM38.8697 30.9474L38.0059 30.4436L38.0035 30.4477L38.8697 30.9474ZM36.3839 33.3935L36.8723 34.2661L36.8741 34.265L36.3839 33.3935ZM32.7546 33.2784C31.6386 33.2784 30.6692 33.0655 29.8266 32.661L28.9611 34.464C30.107 35.0141 31.3782 35.2784 32.7546 35.2784V33.2784ZM29.8338 32.6645C28.9868 32.2495 28.3326 31.6939 27.8463 31L26.2084 32.1478C26.9021 33.1376 27.8254 33.9077 28.9539 34.4605L29.8338 32.6645ZM27.8463 31C27.3728 30.3244 27.1151 29.5519 27.0821 28.6536L25.0834 28.7271C25.1299 29.9898 25.5019 31.1396 26.2084 32.1478L27.8463 31ZM26.0827 29.6903H29.0657V27.6903H26.0827V29.6903ZM28.0692 28.7734C28.1655 29.9297 28.693 30.8981 29.6035 31.6282L30.8546 30.0679C30.3598 29.6711 30.1117 29.201 30.0622 28.6073L28.0692 28.7734ZM29.6035 31.6282C30.4998 32.3469 31.5678 32.6932 32.7546 32.6932V30.6932C31.9794 30.6932 31.3636 30.476 30.8546 30.0679L29.6035 31.6282ZM32.7546 32.6932C33.6952 32.6932 34.5681 32.4761 35.3431 32.0162L34.3224 30.2963C33.8909 30.5523 33.3784 30.6932 32.7546 30.6932V32.6932ZM35.3459 32.0146C36.1128 31.556 36.7153 30.9223 37.1439 30.1311L35.3853 29.1785C35.1244 29.6601 34.7723 30.0273 34.3196 30.2979L35.3459 32.0146ZM37.14 30.1381C37.5826 29.3365 37.7915 28.4407 37.7915 27.4773H35.7915C35.7915 28.1445 35.6492 28.7004 35.3891 29.1715L37.14 30.1381ZM37.7915 27.4773C37.7915 26.5 37.5791 25.5915 37.1305 24.7773L35.3788 25.7425C35.6461 26.2277 35.7915 26.7973 35.7915 27.4773H37.7915ZM37.1305 24.7773C36.6873 23.9731 36.0674 23.3309 35.2809 22.8672L34.2653 24.5902C34.7382 24.869 35.106 25.2475 35.3788 25.7425L37.1305 24.7773ZM35.2849 22.8696C34.4924 22.3975 33.5988 22.1699 32.6336 22.162L32.6172 24.1619C33.2694 24.1672 33.8076 24.3175 34.2613 24.5878L35.2849 22.8696ZM32.6254 22.1619C31.8921 22.1619 31.1635 22.2884 30.4437 22.5335L31.0882 24.4268C31.6146 24.2476 32.1257 24.1619 32.6254 24.1619V22.1619ZM30.4437 22.5335C29.7268 22.7775 29.0953 23.1151 28.5871 23.5708L29.9222 25.0599C30.1829 24.8262 30.559 24.6069 31.0882 24.4268L30.4437 22.5335ZM29.4014 23.3262L26.5875 22.9086L26.2939 24.8869L29.1078 25.3045L29.4014 23.3262ZM27.4345 24.0085L28.578 13.7471L26.5903 13.5256L25.4468 23.787L27.4345 24.0085ZM27.5842 14.6364H38.7802V12.6364H27.5842V14.6364ZM37.7802 13.6364V16.2713H39.7802V13.6364H37.7802ZM38.7802 15.2713H30.1396V17.2713H38.7802V15.2713ZM29.1459 16.1586L28.4996 21.856L30.4869 22.0815L31.1332 16.384L29.1459 16.1586ZM29.4933 22.9688H29.6126V20.9688H29.4933V22.9688ZM30.3076 22.6877C30.5887 22.416 30.9939 22.1577 31.5601 21.9347L30.827 20.0739C30.0807 20.3678 29.4319 20.7525 28.9175 21.2498L30.3076 22.6877ZM31.5569 21.9359C32.0969 21.7253 32.6822 21.6165 33.3214 21.6165V19.6165C32.4492 19.6165 31.6159 19.7662 30.8302 20.0726L31.5569 21.9359ZM33.3214 21.6165C34.3951 21.6165 35.3155 21.8697 36.112 22.3553L37.153 20.6476C36.0138 19.9532 34.7268 19.6165 33.3214 19.6165V21.6165ZM36.1145 22.3569C36.9346 22.8533 37.5774 23.5274 38.0514 24.3965L39.8072 23.4388C39.1676 22.2662 38.2792 21.3294 37.1504 20.646L36.1145 22.3569ZM38.0552 24.4033C38.5244 25.2478 38.7705 26.2412 38.7646 27.4126L40.7645 27.4226C40.7719 25.9557 40.4612 24.6158 39.8035 23.432L38.0552 24.4033ZM38.7646 27.4226C38.7704 28.5817 38.51 29.5793 38.0059 30.4436L39.7335 31.4513C40.4357 30.2474 40.772 28.8917 40.7645 27.4126L38.7646 27.4226ZM38.0035 30.4477C37.4984 31.3233 36.801 32.0115 35.8936 32.5219L36.8741 34.265C38.088 33.5823 39.0478 32.6398 39.7359 31.4472L38.0035 30.4477ZM35.8954 32.5209C35.0093 33.0169 33.9718 33.2784 32.7546 33.2784V35.2784C34.2685 35.2784 35.6505 34.95 36.8723 34.2661L35.8954 32.5209Z" fill="#212121" mask="url(#path-2-outside-1_65_1219)"/>
</svg>
