<svg width="48" height="48" viewBox="0 0 48 48" fill="none" xmlns="http://www.w3.org/2000/svg">
<circle cx="24" cy="24" r="24" fill="#28366C"/>
<path d="M15.2962 32.602L21.6602 26.238M29.6742 23.408L27.7692 29.123C27.7388 29.2146 27.6867 29.2975 27.6174 29.3647C27.5482 29.4319 27.4637 29.4814 27.3712 29.509L15.6932 32.98C15.588 33.0112 15.4762 33.013 15.3701 32.9852C15.2639 32.9573 15.1674 32.9009 15.0911 32.822C15.0148 32.7431 14.9616 32.6448 14.9373 32.5378C14.913 32.4308 14.9185 32.3191 14.9532 32.215L18.7452 20.841C18.7724 20.7593 18.8168 20.6845 18.8755 20.6215C18.9341 20.5585 19.0056 20.5089 19.0852 20.476L24.4722 18.258C24.5817 18.2128 24.7022 18.201 24.8184 18.2241C24.9346 18.2472 25.0413 18.3043 25.1252 18.388L29.5292 22.794C29.608 22.8728 29.6633 22.972 29.6889 23.0804C29.7145 23.1888 29.7094 23.3023 29.6742 23.408Z" stroke="#EEF1F3" stroke-width="1.2" stroke-linecap="round" stroke-linejoin="round"/>
<path d="M29.7923 23.056L32.6203 20.227C32.9953 19.8519 33.2059 19.3433 33.2059 18.813C33.2059 18.2827 32.9953 17.7741 32.6203 17.399L30.5003 15.277C30.3146 15.0912 30.0941 14.9438 29.8514 14.8432C29.6087 14.7427 29.3485 14.6909 29.0858 14.6909C28.8231 14.6909 28.563 14.7427 28.3203 14.8432C28.0776 14.9438 27.8571 15.0912 27.6713 15.277L24.8433 18.106M23.7813 24.116C23.642 23.9767 23.4766 23.8663 23.2946 23.7909C23.1126 23.7156 22.9175 23.6768 22.7205 23.6769C22.5235 23.6769 22.3284 23.7158 22.1464 23.7912C21.9644 23.8666 21.7991 23.9772 21.6598 24.1165C21.5206 24.2558 21.4101 24.4212 21.3348 24.6033C21.2594 24.7853 21.2207 24.9804 21.2207 25.1774C21.2207 25.3744 21.2596 25.5694 21.335 25.7514C21.4105 25.9334 21.521 26.0987 21.6603 26.238C21.9417 26.5193 22.3233 26.6772 22.7212 26.6771C23.119 26.677 23.5006 26.5189 23.7818 26.2375C24.0631 25.9561 24.2211 25.5745 24.221 25.1766C24.2209 24.7788 24.0627 24.3973 23.7813 24.116Z" stroke="#EEF1F3" stroke-width="1.2" stroke-linecap="round" stroke-linejoin="round"/>
</svg>
