<svg width="48" height="48" viewBox="0 0 48 48" fill="none" xmlns="http://www.w3.org/2000/svg">
<rect width="48" height="48" rx="8" fill="#BECBFE"/>
<mask id="path-2-outside-1_65_1171" maskUnits="userSpaceOnUse" x="8" y="12" width="29" height="24" fill="black">
<rect fill="white" x="8" y="12" width="29" height="24"/>
<path d="M17.0483 34.3381C15.4773 34.3314 14.1349 33.9171 13.0213 33.0952C11.9077 32.2732 11.0559 31.0767 10.4659 29.5057C9.87595 27.9347 9.58097 26.0421 9.58097 23.8281C9.58097 21.6207 9.87595 19.7348 10.4659 18.1705C11.0625 16.6061 11.9176 15.4129 13.0312 14.5909C14.1515 13.7689 15.4905 13.358 17.0483 13.358C18.6061 13.358 19.9418 13.7723 21.0554 14.6009C22.169 15.4228 23.0208 16.616 23.6108 18.1804C24.2074 19.7382 24.5057 21.6207 24.5057 23.8281C24.5057 26.0488 24.2107 27.9446 23.6207 29.5156C23.0308 31.08 22.179 32.2765 21.0653 33.1051C19.9517 33.9271 18.6127 34.3381 17.0483 34.3381ZM17.0483 31.6832C18.4271 31.6832 19.5043 31.0104 20.2798 29.6648C21.062 28.3191 21.4531 26.3736 21.4531 23.8281C21.4531 22.1378 21.2741 20.7093 20.9162 19.5426C20.5649 18.3693 20.0578 17.4811 19.3949 16.8778C18.7386 16.268 17.9564 15.9631 17.0483 15.9631C15.6761 15.9631 14.599 16.6392 13.8168 17.9915C13.0346 19.3437 12.6402 21.2893 12.6335 23.8281C12.6335 25.5251 12.8092 26.9602 13.1605 28.1335C13.5185 29.3002 14.0256 30.1851 14.6818 30.7884C15.3381 31.3849 16.1269 31.6832 17.0483 31.6832ZM35.7589 13.6364V34H32.6765V16.7188H32.5572L27.685 19.9006V16.9574L32.766 13.6364H35.7589Z"/>
</mask>
<path d="M17.0483 34.3381L17.0441 35.3381H17.0483V34.3381ZM10.4659 29.5057L11.4021 29.1541L11.4021 29.1541L10.4659 29.5057ZM10.4659 18.1705L9.53154 17.8141L9.53023 17.8176L10.4659 18.1705ZM13.0312 14.5909L12.4397 13.7847L12.4374 13.7863L13.0312 14.5909ZM21.0554 14.6009L20.4585 15.4031L20.4615 15.4054L21.0554 14.6009ZM23.6108 18.1804L22.6751 18.5333L22.6769 18.538L23.6108 18.1804ZM23.6207 29.5156L24.5564 29.8685L24.5569 29.8672L23.6207 29.5156ZM21.0653 33.1051L21.6592 33.9097L21.6623 33.9074L21.0653 33.1051ZM20.2798 29.6648L19.4153 29.1622L19.4134 29.1654L20.2798 29.6648ZM20.9162 19.5426L19.9582 19.8295L19.9602 19.8359L20.9162 19.5426ZM19.3949 16.8778L18.7141 17.6104L18.7218 17.6174L19.3949 16.8778ZM13.8168 17.9915L12.9511 17.4908L12.9511 17.4908L13.8168 17.9915ZM12.6335 23.8281L11.6335 23.8255V23.8281H12.6335ZM13.1605 28.1335L12.2025 28.4204L12.2045 28.4268L13.1605 28.1335ZM14.6818 30.7884L14.0051 31.5246L14.0091 31.5283L14.6818 30.7884ZM17.0525 33.3381C15.6639 33.3322 14.5354 32.9698 13.6152 32.2906L12.4275 33.8997C13.7345 34.8645 15.2906 35.3307 17.0441 35.3381L17.0525 33.3381ZM13.6152 32.2906C12.6873 31.6057 11.9387 30.583 11.4021 29.1541L9.52974 29.8572C10.1731 31.5704 11.1281 32.9407 12.4275 33.8997L13.6152 32.2906ZM11.4021 29.1541C10.8654 27.725 10.581 25.9583 10.581 23.8281H8.58097C8.58097 26.126 8.88648 28.1443 9.52974 29.8572L11.4021 29.1541ZM10.581 23.8281C10.581 21.7048 10.8654 19.9452 11.4016 18.5233L9.53023 17.8176C8.88654 19.5245 8.58097 21.5366 8.58097 23.8281H10.581ZM11.4003 18.5268C11.943 17.1035 12.6952 16.0819 13.6251 15.3955L12.4374 13.7863C11.1401 14.7439 10.182 16.1086 9.53155 17.8141L11.4003 18.5268ZM13.6228 15.3972C14.551 14.7161 15.6763 14.358 17.0483 14.358V12.358C15.3047 12.358 13.752 12.8217 12.4397 13.7847L13.6228 15.3972ZM17.0483 14.358C18.4186 14.358 19.5382 14.7185 20.4585 15.4031L21.6523 13.7986C20.3453 12.8261 18.7936 12.358 17.0483 12.358V14.358ZM20.4615 15.4054C21.3904 16.091 22.1389 17.1114 22.6751 18.5333L24.5465 17.8275C23.9028 16.1206 22.9476 14.7546 21.6493 13.7963L20.4615 15.4054ZM22.6769 18.538C23.2182 19.9513 23.5057 21.7057 23.5057 23.8281H25.5057C25.5057 21.5358 25.1966 19.525 24.5447 17.8228L22.6769 18.538ZM23.5057 23.8281C23.5057 25.9653 23.2211 27.7353 22.6846 29.1641L24.5569 29.8672C25.2003 28.1539 25.5057 26.1322 25.5057 23.8281H23.5057ZM22.6851 29.1628C22.1487 30.585 21.3995 31.61 20.4684 32.3028L21.6623 33.9074C22.9584 32.943 23.9128 31.575 24.5564 29.8685L22.6851 29.1628ZM20.4715 32.3005C19.5519 32.9793 18.428 33.3381 17.0483 33.3381V35.3381C18.7973 35.3381 20.3516 34.8748 21.6592 33.9097L20.4715 32.3005ZM17.0483 32.6832C18.8359 32.6832 20.2193 31.7724 21.1462 30.1641L19.4134 29.1654C18.7892 30.2485 18.0182 30.6832 17.0483 30.6832V32.6832ZM21.1444 30.1673C22.0549 28.601 22.4531 26.4498 22.4531 23.8281H20.4531C20.4531 26.2974 20.0692 28.0373 19.4153 29.1622L21.1444 30.1673ZM22.4531 23.8281C22.4531 22.0736 22.2681 20.5397 21.8722 19.2493L19.9602 19.8359C20.2802 20.8789 20.4531 22.2019 20.4531 23.8281H22.4531ZM21.8742 19.2558C21.4891 17.9698 20.9057 16.9006 20.0679 16.1382L18.7218 17.6174C19.2098 18.0615 19.6406 18.7688 19.9582 19.8295L21.8742 19.2558ZM20.0756 16.1453C19.2316 15.3609 18.2051 14.9631 17.0483 14.9631V16.9631C17.7077 16.9631 18.2457 17.175 18.7142 17.6104L20.0756 16.1453ZM17.0483 14.9631C15.2636 14.9631 13.8824 15.8808 12.9511 17.4908L14.6824 18.4922C15.3155 17.3976 16.0887 16.9631 17.0483 16.9631V14.9631ZM12.9511 17.4908C12.0427 19.0613 11.6404 21.2097 11.6335 23.8255L13.6335 23.8307C13.6399 21.3689 14.0264 19.6262 14.6824 18.4922L12.9511 17.4908ZM11.6335 23.8281C11.6335 25.5878 11.8149 27.1259 12.2025 28.4204L14.1185 27.8467C13.8034 26.7945 13.6335 25.4624 13.6335 23.8281H11.6335ZM12.2045 28.4268C12.5961 29.7032 13.1785 30.7647 14.0051 31.5246L15.3586 30.0521C14.8727 29.6055 14.4408 28.8972 14.1165 27.8402L12.2045 28.4268ZM14.0091 31.5283C14.8572 32.2992 15.8888 32.6832 17.0483 32.6832V30.6832C16.365 30.6832 15.8189 30.4706 15.3545 30.0484L14.0091 31.5283ZM35.7589 13.6364H36.7589V12.6364H35.7589V13.6364ZM35.7589 34V35H36.7589V34H35.7589ZM32.6765 34H31.6765V35H32.6765V34ZM32.6765 16.7188H33.6765V15.7188H32.6765V16.7188ZM32.5572 16.7188V15.7188H32.2596L32.0104 15.8815L32.5572 16.7188ZM27.685 19.9006H26.685V21.748L28.2318 20.7378L27.685 19.9006ZM27.685 16.9574L27.1379 16.1203L26.685 16.4163V16.9574H27.685ZM32.766 13.6364V12.6364H32.4682L32.2189 12.7993L32.766 13.6364ZM34.7589 13.6364V34H36.7589V13.6364H34.7589ZM35.7589 33H32.6765V35H35.7589V33ZM33.6765 34V16.7188H31.6765V34H33.6765ZM32.6765 15.7188H32.5572V17.7188H32.6765V15.7188ZM32.0104 15.8815L27.1382 19.0633L28.2318 20.7378L33.104 17.556L32.0104 15.8815ZM28.685 19.9006V16.9574H26.685V19.9006H28.685ZM28.2321 17.7944L33.3131 14.4734L32.2189 12.7993L27.1379 16.1203L28.2321 17.7944ZM32.766 14.6364H35.7589V12.6364H32.766V14.6364Z" fill="#212121" mask="url(#path-2-outside-1_65_1171)"/>
</svg>
