<svg width="48" height="48" viewBox="0 0 48 48" fill="none" xmlns="http://www.w3.org/2000/svg">
<circle cx="24" cy="24" r="24" fill="#28366C"/>
<path d="M18.9999 26C18.5634 26.0007 18.1323 26.0966 17.7367 26.281C17.341 26.4655 16.9904 26.734 16.7093 27.068C16.4282 27.4019 16.2234 27.7932 16.1091 28.2145C15.9948 28.6358 15.9738 29.0769 16.0476 29.5072C16.1214 29.9374 16.2882 30.3463 16.5363 30.7055C16.7845 31.0646 17.108 31.3652 17.4843 31.5864C17.8607 31.8076 18.2807 31.944 18.7152 31.986C19.1497 32.0281 19.5881 31.9749 19.9999 31.83" stroke="#EEF1F3" stroke-width="1.2" stroke-linecap="round" stroke-linejoin="round"/>
<path d="M16.2639 27.605C15.6655 27.3169 15.1482 26.8843 14.7588 26.3463C14.3693 25.8083 14.12 25.1817 14.0333 24.5232C13.9465 23.8647 14.0252 23.195 14.262 22.5745C14.4988 21.954 14.8865 21.4022 15.3899 20.969M15.4199 20.888C15.092 20.3972 14.9482 19.8063 15.0141 19.2197C15.0801 18.6332 15.3514 18.0889 15.7801 17.6831C16.2088 17.2774 16.7672 17.0365 17.3565 17.003C17.9458 16.9694 18.528 17.1455 18.9999 17.5M19.2379 17.565C19.0784 17.226 18.9971 16.8556 19 16.481C19.0029 16.1064 19.09 15.7372 19.2547 15.4008C19.4195 15.0643 19.6578 14.7692 19.952 14.5373C20.2462 14.3053 20.5887 14.1424 20.9543 14.0607C21.3199 13.9789 21.6992 13.9804 22.0641 14.0649C22.4291 14.1494 22.7704 14.3149 23.0627 14.5491C23.3551 14.7833 23.5912 15.0802 23.7534 15.4179C23.9156 15.7556 23.9999 16.1254 23.9999 16.5M23.9999 16.5V32M23.9999 16.5C24 16.1254 24.0842 15.7556 24.2464 15.4179C24.4087 15.0802 24.6447 14.7833 24.9371 14.5491C25.2295 14.3149 25.5708 14.1494 25.9357 14.0649C26.3007 13.9804 26.68 13.9789 27.0455 14.0607C27.4111 14.1424 27.7537 14.3053 28.0478 14.5373C28.342 14.7692 28.5803 15.0643 28.7451 15.4008C28.9099 15.7372 28.9969 16.1064 28.9998 16.481C29.0028 16.8556 28.9214 17.226 28.7619 17.565M23.9999 32C23.9999 32.5304 23.7892 33.0391 23.4141 33.4142C23.0391 33.7893 22.5303 34 21.9999 34C21.4695 34 20.9608 33.7893 20.5857 33.4142C20.2106 33.0391 19.9999 32.5304 19.9999 32M23.9999 32C23.9999 32.5304 24.2106 33.0391 24.5857 33.4142C24.9608 33.7893 25.4695 34 25.9999 34M23.9999 19C23.9999 19.7956 24.316 20.5587 24.8786 21.1213C25.4412 21.6839 26.2043 22 26.9999 22M32.6099 20.969C33.0465 21.3441 33.3968 21.8091 33.6367 22.3323C33.8767 22.8555 34.0006 23.4244 33.9999 24C33.9999 24.703 33.8189 25.364 33.4999 25.938M32.5799 20.888C32.9079 20.3972 33.0516 19.8063 32.9857 19.2197C32.9198 18.6332 32.6484 18.0889 32.2197 17.6831C31.791 17.2774 31.2326 17.0365 30.6433 17.003C30.054 16.9694 29.4719 17.1455 28.9999 17.5M32.4999 32.5L33.9999 34M27.9999 30.5C27.9999 31.163 28.2633 31.7989 28.7321 32.2678C29.201 32.7366 29.8369 33 30.4999 33C31.163 33 31.7988 32.7366 32.2677 32.2678C32.7365 31.7989 32.9999 31.163 32.9999 30.5C32.9999 29.837 32.7365 29.2011 32.2677 28.7322C31.7988 28.2634 31.163 28 30.4999 28C29.8369 28 29.201 28.2634 28.7321 28.7322C28.2633 29.2011 27.9999 29.837 27.9999 30.5Z" stroke="#EEF1F3" stroke-width="1.2" stroke-linecap="round" stroke-linejoin="round"/>
</svg>
