<svg width="48" height="48" viewBox="0 0 48 48" fill="none" xmlns="http://www.w3.org/2000/svg">
<rect width="48" height="48" rx="8" fill="#BECBFE"/>
<mask id="path-2-outside-1_65_1231" maskUnits="userSpaceOnUse" x="6" y="12" width="36" height="24" fill="black">
<rect fill="white" x="6" y="12" width="36" height="24"/>
<path d="M15.0483 34.3381C13.4773 34.3314 12.1349 33.9171 11.0213 33.0952C9.90767 32.2732 9.05587 31.0767 8.46591 29.5057C7.87595 27.9347 7.58097 26.0421 7.58097 23.8281C7.58097 21.6207 7.87595 19.7348 8.46591 18.1705C9.0625 16.6061 9.91761 15.4129 11.0312 14.5909C12.1515 13.7689 13.4905 13.358 15.0483 13.358C16.6061 13.358 17.9418 13.7723 19.0554 14.6009C20.169 15.4228 21.0208 16.616 21.6108 18.1804C22.2074 19.7382 22.5057 21.6207 22.5057 23.8281C22.5057 26.0488 22.2107 27.9446 21.6207 29.5156C21.0308 31.08 20.179 32.2765 19.0653 33.1051C17.9517 33.9271 16.6127 34.3381 15.0483 34.3381ZM15.0483 31.6832C16.4271 31.6832 17.5043 31.0104 18.2798 29.6648C19.062 28.3191 19.4531 26.3736 19.4531 23.8281C19.4531 22.1378 19.2741 20.7093 18.9162 19.5426C18.5649 18.3693 18.0578 17.4811 17.3949 16.8778C16.7386 16.268 15.9564 15.9631 15.0483 15.9631C13.6761 15.9631 12.599 16.6392 11.8168 17.9915C11.0346 19.3437 10.6402 21.2893 10.6335 23.8281C10.6335 25.5251 10.8092 26.9602 11.1605 28.1335C11.5185 29.3002 12.0256 30.1851 12.6818 30.7884C13.3381 31.3849 14.1269 31.6832 15.0483 31.6832ZM33.1424 34.2784C32.2343 34.2652 31.3394 34.0994 30.4577 33.7812C29.5827 33.4631 28.7873 32.9328 28.0714 32.1903C27.3555 31.4479 26.7821 30.4503 26.3512 29.1974C25.927 27.9446 25.7148 26.3802 25.7148 24.5043C25.7148 22.7277 25.8905 21.1501 26.2418 19.7713C26.5998 18.3925 27.1135 17.2292 27.783 16.2812C28.4525 15.3267 29.2612 14.6009 30.2092 14.1037C31.1571 13.6065 32.221 13.358 33.4009 13.358C34.614 13.358 35.6912 13.5966 36.6325 14.0739C37.5737 14.5511 38.3361 15.2107 38.9194 16.0526C39.5094 16.8944 39.8839 17.8523 40.043 18.9261H37.0103C36.8048 18.0777 36.3971 17.3849 35.7873 16.848C35.1774 16.3111 34.382 16.0426 33.4009 16.0426C31.9094 16.0426 30.7461 16.6922 29.9109 17.9915C29.0823 19.2907 28.6647 21.0971 28.658 23.4105H28.8072C29.1585 22.8338 29.5894 22.3433 30.0998 21.9389C30.6168 21.5279 31.1935 21.2131 31.8299 20.9943C32.4729 20.7689 33.149 20.6562 33.8583 20.6562C35.0382 20.6562 36.1055 20.9446 37.06 21.5213C38.0212 22.0914 38.7868 22.8802 39.3569 23.8878C39.927 24.8954 40.212 26.0488 40.212 27.348C40.212 28.6473 39.917 29.8239 39.3271 30.8778C38.7437 31.9318 37.9218 32.767 36.8612 33.3835C35.8005 33.9934 34.561 34.2917 33.1424 34.2784ZM33.1325 31.6932C33.9147 31.6932 34.614 31.5009 35.2305 31.1165C35.8469 30.732 36.3342 30.215 36.6921 29.5653C37.0501 28.9157 37.229 28.1899 37.229 27.3878C37.229 26.6056 37.0534 25.893 36.7021 25.25C36.3574 24.607 35.8801 24.0966 35.2702 23.7188C34.667 23.3409 33.9776 23.152 33.2021 23.152C32.6121 23.152 32.0652 23.2647 31.5614 23.4901C31.0643 23.7154 30.6268 24.027 30.2489 24.4247C29.8711 24.8224 29.5728 25.2798 29.354 25.7969C29.1419 26.3073 29.0359 26.8475 29.0359 27.4176C29.0359 28.1799 29.2115 28.8859 29.5629 29.5355C29.9208 30.1851 30.408 30.7088 31.0245 31.1065C31.6476 31.4976 32.3503 31.6932 33.1325 31.6932Z"/>
</mask>
<path d="M15.0483 34.3381L15.0441 35.3381H15.0483V34.3381ZM8.46591 29.5057L9.40208 29.1541L8.46591 29.5057ZM8.46591 18.1705L7.53154 17.8141L7.53023 17.8176L8.46591 18.1705ZM11.0312 14.5909L10.4397 13.7847L10.4374 13.7863L11.0312 14.5909ZM19.0554 14.6009L18.4585 15.4031L18.4615 15.4054L19.0554 14.6009ZM21.6108 18.1804L20.6751 18.5333L20.6769 18.538L21.6108 18.1804ZM21.6207 29.5156L22.5564 29.8685L22.5569 29.8672L21.6207 29.5156ZM19.0653 33.1051L19.6592 33.9097L19.6623 33.9074L19.0653 33.1051ZM18.2798 29.6648L17.4153 29.1622L17.4134 29.1654L18.2798 29.6648ZM18.9162 19.5426L17.9582 19.8295L17.9602 19.8359L18.9162 19.5426ZM17.3949 16.8778L16.7141 17.6104L16.7218 17.6174L17.3949 16.8778ZM11.8168 17.9915L10.9511 17.4908H10.9511L11.8168 17.9915ZM10.6335 23.8281L9.63352 23.8255V23.8281H10.6335ZM11.1605 28.1335L10.2025 28.4204L10.2045 28.4268L11.1605 28.1335ZM12.6818 30.7884L12.0051 31.5246L12.0091 31.5283L12.6818 30.7884ZM15.0525 33.3381C13.6639 33.3322 12.5354 32.9698 11.6152 32.2906L10.4275 33.8997C11.7345 34.8645 13.2906 35.3307 15.0441 35.3381L15.0525 33.3381ZM11.6152 32.2906C10.6873 31.6057 9.93866 30.583 9.40208 29.1541L7.52974 29.8572C8.17308 31.5704 9.12807 32.9407 10.4275 33.8997L11.6152 32.2906ZM9.40208 29.1541C8.86541 27.725 8.58097 25.9583 8.58097 23.8281H6.58097C6.58097 26.126 6.88648 28.1443 7.52974 29.8572L9.40208 29.1541ZM8.58097 23.8281C8.58097 21.7048 8.86535 19.9452 9.40159 18.5233L7.53023 17.8176C6.88654 19.5245 6.58097 21.5366 6.58097 23.8281H8.58097ZM9.40027 18.5268C9.94305 17.1035 10.6952 16.0819 11.6251 15.3955L10.4374 13.7863C9.14005 14.7439 8.18195 16.1086 7.53155 17.8141L9.40027 18.5268ZM11.6228 15.3972C12.551 14.7161 13.6763 14.358 15.0483 14.358V12.358C13.3047 12.358 11.752 12.8217 10.4397 13.7847L11.6228 15.3972ZM15.0483 14.358C16.4186 14.358 17.5382 14.7185 18.4585 15.4031L19.6523 13.7986C18.3453 12.8261 16.7936 12.358 15.0483 12.358V14.358ZM18.4615 15.4054C19.3904 16.091 20.1389 17.1114 20.6751 18.5333L22.5465 17.8275C21.9028 16.1206 20.9476 14.7546 19.6493 13.7963L18.4615 15.4054ZM20.6769 18.538C21.2182 19.9513 21.5057 21.7057 21.5057 23.8281H23.5057C23.5057 21.5358 23.1966 19.525 22.5447 17.8228L20.6769 18.538ZM21.5057 23.8281C21.5057 25.9653 21.2211 27.7353 20.6846 29.1641L22.5569 29.8672C23.2003 28.1539 23.5057 26.1322 23.5057 23.8281H21.5057ZM20.6851 29.1628C20.1487 30.585 19.3995 31.61 18.4684 32.3028L19.6623 33.9074C20.9584 32.943 21.9128 31.575 22.5564 29.8685L20.6851 29.1628ZM18.4715 32.3005C17.5519 32.9793 16.428 33.3381 15.0483 33.3381V35.3381C16.7973 35.3381 18.3516 34.8748 19.6592 33.9097L18.4715 32.3005ZM15.0483 32.6832C16.8359 32.6832 18.2193 31.7724 19.1462 30.1641L17.4134 29.1654C16.7892 30.2485 16.0182 30.6832 15.0483 30.6832V32.6832ZM19.1444 30.1673C20.0549 28.601 20.4531 26.4498 20.4531 23.8281H18.4531C18.4531 26.2974 18.0692 28.0373 17.4153 29.1622L19.1444 30.1673ZM20.4531 23.8281C20.4531 22.0736 20.2681 20.5397 19.8722 19.2493L17.9602 19.8359C18.2802 20.8789 18.4531 22.2019 18.4531 23.8281H20.4531ZM19.8742 19.2558C19.4891 17.9698 18.9057 16.9006 18.0679 16.1382L16.7218 17.6174C17.2098 18.0615 17.6406 18.7688 17.9582 19.8295L19.8742 19.2558ZM18.0756 16.1453C17.2316 15.3609 16.2051 14.9631 15.0483 14.9631V16.9631C15.7077 16.9631 16.2457 17.175 16.7142 17.6104L18.0756 16.1453ZM15.0483 14.9631C13.2636 14.9631 11.8824 15.8808 10.9511 17.4908L12.6824 18.4922C13.3155 17.3976 14.0887 16.9631 15.0483 16.9631V14.9631ZM10.9511 17.4908C10.0427 19.0613 9.64036 21.2097 9.63353 23.8255L11.6335 23.8307C11.6399 21.3689 12.0264 19.6262 12.6824 18.4922L10.9511 17.4908ZM9.63352 23.8281C9.63352 25.5878 9.81493 27.1259 10.2025 28.4204L12.1185 27.8467C11.8034 26.7945 11.6335 25.4624 11.6335 23.8281H9.63352ZM10.2045 28.4268C10.5961 29.7032 11.1785 30.7647 12.0051 31.5246L13.3586 30.0521C12.8727 29.6055 12.4408 28.8972 12.1165 27.8402L10.2045 28.4268ZM12.0091 31.5283C12.8572 32.2992 13.8888 32.6832 15.0483 32.6832V30.6832C14.365 30.6832 13.8189 30.4706 13.3545 30.0484L12.0091 31.5283ZM33.1424 34.2784L33.1278 35.2783L33.1331 35.2784L33.1424 34.2784ZM30.4577 33.7812L30.116 34.721L30.1183 34.7219L30.4577 33.7812ZM28.0714 32.1903L28.7912 31.4962L28.0714 32.1903ZM26.3512 29.1974L25.404 29.5182L25.4056 29.5227L26.3512 29.1974ZM26.2418 19.7713L25.2739 19.52L25.2728 19.5244L26.2418 19.7713ZM27.783 16.2812L28.5998 16.8582L28.6017 16.8555L27.783 16.2812ZM30.2092 14.1037L29.7447 13.2181V13.2181L30.2092 14.1037ZM36.6325 14.0739L36.1802 14.9658H36.1802L36.6325 14.0739ZM38.9194 16.0526L38.0974 16.6221L38.1005 16.6265L38.9194 16.0526ZM40.043 18.9261V19.9261H41.202L41.0322 18.7796L40.043 18.9261ZM37.0103 18.9261L36.0384 19.1615L36.2236 19.9261H37.0103V18.9261ZM35.7873 16.848L36.4481 16.0975V16.0975L35.7873 16.848ZM29.9109 17.9915L29.0697 17.4507L29.0677 17.4538L29.9109 17.9915ZM28.658 23.4105L27.658 23.4076L27.6552 24.4105H28.658V23.4105ZM28.8072 23.4105V24.4105H29.3689L29.6612 23.9308L28.8072 23.4105ZM30.0998 21.9389L30.7208 22.7228L30.722 22.7217L30.0998 21.9389ZM31.8299 20.9943L32.155 21.94L32.1607 21.938L31.8299 20.9943ZM37.06 21.5213L36.5429 22.3773L36.5499 22.3814L37.06 21.5213ZM39.3569 23.8878L40.2272 23.3953L40.2272 23.3953L39.3569 23.8878ZM39.3271 30.8778L38.4544 30.3894L38.4521 30.3936L39.3271 30.8778ZM36.8612 33.3835L37.3596 34.2504L37.3637 34.2481L36.8612 33.3835ZM35.2305 31.1165L34.7013 30.268L35.2305 31.1165ZM36.7021 25.25L35.8207 25.7225L35.8245 25.7295L36.7021 25.25ZM35.2702 23.7188L34.7394 24.5662L34.7436 24.5688L35.2702 23.7188ZM31.5614 23.4901L31.1531 22.5772L31.1485 22.5793L31.5614 23.4901ZM30.2489 24.4247L30.9739 25.1135V25.1135L30.2489 24.4247ZM29.354 25.7969L28.4331 25.4072L28.4306 25.4131L29.354 25.7969ZM29.5629 29.5355L28.6832 30.0112L28.687 30.0181L29.5629 29.5355ZM31.0245 31.1065L30.4823 31.9469L30.4929 31.9535L31.0245 31.1065ZM33.157 33.2785C32.3632 33.2669 31.578 33.1224 30.7972 32.8406L30.1183 34.7219C31.1008 35.0765 32.1053 35.2634 33.1278 35.2783L33.157 33.2785ZM30.7995 32.8415C30.0824 32.5807 29.413 32.141 28.7912 31.4962L27.3515 32.8845C28.1616 33.7246 29.0831 34.3454 30.116 34.721L30.7995 32.8415ZM28.7912 31.4962C28.2011 30.8842 27.6933 30.0249 27.2968 28.8722L25.4056 29.5227C25.8709 30.8756 26.5098 32.0116 27.3515 32.8845L28.7912 31.4962ZM27.2984 28.8767C26.9204 27.7605 26.7148 26.3129 26.7148 24.5043H24.7148C24.7148 26.4475 24.9335 28.1287 25.404 29.5182L27.2984 28.8767ZM26.7148 24.5043C26.7148 22.7914 26.8844 21.2993 27.2109 20.0182L25.2728 19.5244C24.8966 21.0009 24.7148 22.6641 24.7148 24.5043H26.7148ZM27.2097 20.0226C27.5441 18.7349 28.0137 17.688 28.5998 16.8582L26.9662 15.7043C26.2133 16.7704 25.6555 18.0502 25.2739 19.52L27.2097 20.0226ZM28.6017 16.8555C29.188 16.0196 29.8793 15.4059 30.6736 14.9893L29.7447 13.2181C28.6432 13.7958 27.7171 14.6338 26.9643 15.707L28.6017 16.8555ZM30.6736 14.9893C31.464 14.5747 32.3659 14.358 33.4009 14.358V12.358C32.0761 12.358 30.8501 12.6383 29.7447 13.2181L30.6736 14.9893ZM33.4009 14.358C34.4804 14.358 35.3987 14.5695 36.1802 14.9658L37.0847 13.182C35.9836 12.6237 34.7476 12.358 33.4009 12.358V14.358ZM36.1802 14.9658C36.9781 15.3703 37.6116 15.921 38.0974 16.6221L39.7413 15.483C39.0605 14.5004 38.1694 13.7319 37.0847 13.182L36.1802 14.9658ZM38.1005 16.6265C38.5962 17.3339 38.9161 18.1437 39.0538 19.0727L41.0322 18.7796C40.8516 17.5608 40.4225 16.4549 39.7383 15.4787L38.1005 16.6265ZM40.043 17.9261H37.0103V19.9261H40.043V17.9261ZM37.9822 18.6908C37.7322 17.6583 37.2237 16.7804 36.4481 16.0975L35.1265 17.5986C35.5705 17.9895 35.8774 18.497 36.0384 19.1615L37.9822 18.6908ZM36.4481 16.0975C35.6195 15.3679 34.5724 15.0426 33.4009 15.0426V17.0426C34.1916 17.0426 34.7354 17.2542 35.1265 17.5986L36.4481 16.0975ZM33.4009 15.0426C31.5548 15.0426 30.081 15.8776 29.0697 17.4507L30.752 18.5322C31.4112 17.5069 32.2641 17.0426 33.4009 17.0426V15.0426ZM29.0677 17.4538C28.0982 18.974 27.6649 20.9933 27.658 23.4076L29.658 23.4134C29.6644 21.2008 30.0663 19.6075 30.754 18.5292L29.0677 17.4538ZM28.658 24.4105H28.8072V22.4105H28.658V24.4105ZM29.6612 23.9308C29.9533 23.4512 30.3064 23.051 30.7208 22.7228L29.4788 21.1551C28.8723 21.6355 28.3637 22.2164 27.9532 22.8903L29.6612 23.9308ZM30.722 22.7217C31.1483 22.3829 31.6242 22.1225 32.155 21.94L31.5048 20.0486C30.7629 20.3037 30.0853 20.673 29.4775 21.1561L30.722 22.7217ZM32.1607 21.938C32.6931 21.7514 33.257 21.6562 33.8583 21.6562V19.6562C33.0411 19.6562 32.2527 19.7865 31.4991 20.0506L32.1607 21.938ZM33.8583 21.6562C34.867 21.6562 35.7535 21.9003 36.5429 22.3772L37.5771 20.6654C36.4574 19.9889 35.2095 19.6562 33.8583 19.6562V21.6562ZM36.5499 22.3814C37.3554 22.8592 37.9992 23.5188 38.4865 24.3802L40.2272 23.3953C39.5744 22.2416 38.6869 21.3236 37.5701 20.6612L36.5499 22.3814ZM38.4865 24.3802C38.9616 25.2199 39.212 26.1998 39.212 27.348H41.212C41.212 25.8977 40.8923 24.5708 40.2272 23.3953L38.4865 24.3802ZM39.212 27.348C39.212 28.4896 38.9546 29.4959 38.4545 30.3894L40.1997 31.3663C40.8794 30.1518 41.212 28.8049 41.212 27.348H39.212ZM38.4521 30.3936C37.958 31.2865 37.266 31.9915 36.3586 32.519L37.3637 34.2481C38.5775 33.5426 39.5295 32.5772 40.202 31.3621L38.4521 30.3936ZM36.3627 32.5166C35.4797 33.0244 34.421 33.2903 33.1517 33.2785L33.1331 35.2784C34.7009 35.293 36.1214 34.9624 37.3596 34.2504L36.3627 32.5166ZM33.1325 32.6932C34.0868 32.6932 34.9722 32.4561 35.7596 31.965L34.7013 30.268C34.2558 30.5458 33.7425 30.6932 33.1325 30.6932V32.6932ZM35.7596 31.965C36.5242 31.4882 37.1294 30.8439 37.568 30.0479L35.8163 29.0827C35.5389 29.5861 35.1697 29.9758 34.7013 30.268L35.7596 31.965ZM37.568 30.0479C38.0139 29.2386 38.229 28.3445 38.229 27.3878H36.229C36.229 28.0352 36.0862 28.5928 35.8163 29.0827L37.568 30.0479ZM38.229 27.3878C38.229 26.4497 38.0167 25.5705 37.5796 24.7705L35.8245 25.7295C36.0901 26.2155 36.229 26.7615 36.229 27.3878H38.229ZM37.5834 24.7775C37.1572 23.9825 36.5587 23.3407 35.7969 22.8687L34.7436 24.5688C35.2014 24.8525 35.5575 25.2316 35.8207 25.7225L37.5834 24.7775ZM35.8011 22.8713C35.0246 22.3849 34.1479 22.152 33.2021 22.152V24.152C33.8073 24.152 34.3095 24.2969 34.7394 24.5662L35.8011 22.8713ZM33.2021 22.152C32.4812 22.152 31.794 22.2905 31.1531 22.5772L31.9698 24.4029C32.3364 24.2389 32.743 24.152 33.2021 24.152V22.152ZM31.1485 22.5793C30.5334 22.8581 29.9901 23.2453 29.5239 23.736L30.9739 25.1135C31.2635 24.8087 31.5951 24.5727 31.9743 24.4008L31.1485 22.5793ZM29.5239 23.736C29.0614 24.2229 28.6975 24.7822 28.4331 25.4072L30.275 26.1865C30.4481 25.7775 30.6808 25.422 30.9739 25.1135L29.5239 23.736ZM28.4306 25.4131C28.1664 26.049 28.0359 26.72 28.0359 27.4176H30.0359C30.0359 26.975 30.1175 26.5656 30.2775 26.1806L28.4306 25.4131ZM28.0359 27.4176C28.0359 28.3405 28.2503 29.2107 28.6833 30.0112L30.4425 29.0598C30.1728 28.5611 30.0359 28.0194 30.0359 27.4176H28.0359ZM28.687 30.0181C29.124 30.8111 29.7252 31.4583 30.4824 31.9468L31.5666 30.2662C31.0909 29.9593 30.7177 29.5592 30.4387 29.0529L28.687 30.0181ZM30.4929 31.9535C31.2855 32.451 32.1746 32.6932 33.1325 32.6932V30.6932C32.5259 30.6932 32.0097 30.5443 31.5561 30.2596L30.4929 31.9535Z" fill="#212121" mask="url(#path-2-outside-1_65_1231)"/>
</svg>
