<svg width="48" height="48" viewBox="0 0 48 48" fill="none" xmlns="http://www.w3.org/2000/svg">
<rect width="48" height="48" rx="8" fill="#BECBFE"/>
<mask id="path-2-outside-1_65_1184" maskUnits="userSpaceOnUse" x="6" y="12" width="35" height="24" fill="black">
<rect fill="white" x="6" y="12" width="35" height="24"/>
<path d="M15.0483 34.3381C13.4773 34.3314 12.1349 33.9171 11.0213 33.0952C9.90767 32.2732 9.05587 31.0767 8.46591 29.5057C7.87595 27.9347 7.58097 26.0421 7.58097 23.8281C7.58097 21.6207 7.87595 19.7348 8.46591 18.1705C9.0625 16.6061 9.91761 15.4129 11.0312 14.5909C12.1515 13.7689 13.4905 13.358 15.0483 13.358C16.6061 13.358 17.9418 13.7723 19.0554 14.6009C20.169 15.4228 21.0208 16.616 21.6108 18.1804C22.2074 19.7382 22.5057 21.6207 22.5057 23.8281C22.5057 26.0488 22.2107 27.9446 21.6207 29.5156C21.0308 31.08 20.179 32.2765 19.0653 33.1051C17.9517 33.9271 16.6127 34.3381 15.0483 34.3381ZM15.0483 31.6832C16.4271 31.6832 17.5043 31.0104 18.2798 29.6648C19.062 28.3191 19.4531 26.3736 19.4531 23.8281C19.4531 22.1378 19.2741 20.7093 18.9162 19.5426C18.5649 18.3693 18.0578 17.4811 17.3949 16.8778C16.7386 16.268 15.9564 15.9631 15.0483 15.9631C13.6761 15.9631 12.599 16.6392 11.8168 17.9915C11.0346 19.3437 10.6402 21.2893 10.6335 23.8281C10.6335 25.5251 10.8092 26.9602 11.1605 28.1335C11.5185 29.3002 12.0256 30.1851 12.6818 30.7884C13.3381 31.3849 14.1269 31.6832 15.0483 31.6832ZM26.033 34V31.7727L32.9237 24.6335C33.6594 23.858 34.266 23.1785 34.7433 22.5952C35.2272 22.0052 35.5884 21.4451 35.8271 20.9148C36.0657 20.3845 36.185 19.821 36.185 19.2244C36.185 18.5483 36.0259 17.965 35.7077 17.4744C35.3896 16.9773 34.9554 16.5961 34.4052 16.331C33.855 16.0592 33.2352 15.9233 32.5458 15.9233C31.8166 15.9233 31.1803 16.0724 30.6367 16.3707C30.0932 16.669 29.6755 17.09 29.3839 17.6335C29.0922 18.1771 28.9464 18.8134 28.9464 19.5426H26.0131C26.0131 18.303 26.2982 17.2192 26.8683 16.2912C27.4383 15.3632 28.2205 14.6439 29.2148 14.1335C30.2092 13.6165 31.3394 13.358 32.6055 13.358C33.8848 13.358 35.0117 13.6132 35.9862 14.1236C36.9672 14.6274 37.7328 15.3168 38.283 16.1918C38.8332 17.0601 39.1083 18.0412 39.1083 19.1349C39.1083 19.8906 38.9658 20.6297 38.6808 21.3523C38.4023 22.0748 37.9151 22.8802 37.2191 23.7685C36.5231 24.6501 35.5553 25.7206 34.3157 26.9801L30.2688 31.2159V31.3651H39.4364V34H26.033Z"/>
</mask>
<path d="M15.0483 34.3381L15.0441 35.3381H15.0483V34.3381ZM8.46591 29.5057L9.40208 29.1541L8.46591 29.5057ZM8.46591 18.1705L7.53154 17.8141L7.53023 17.8176L8.46591 18.1705ZM11.0312 14.5909L10.4397 13.7847L10.4374 13.7863L11.0312 14.5909ZM19.0554 14.6009L18.4585 15.4031L18.4615 15.4054L19.0554 14.6009ZM21.6108 18.1804L20.6751 18.5333L20.6769 18.538L21.6108 18.1804ZM21.6207 29.5156L22.5564 29.8685L22.5569 29.8672L21.6207 29.5156ZM19.0653 33.1051L19.6592 33.9097L19.6623 33.9074L19.0653 33.1051ZM18.2798 29.6648L17.4153 29.1622L17.4134 29.1654L18.2798 29.6648ZM18.9162 19.5426L17.9582 19.8295L17.9602 19.8359L18.9162 19.5426ZM17.3949 16.8778L16.7141 17.6104L16.7218 17.6174L17.3949 16.8778ZM11.8168 17.9915L10.9511 17.4908H10.9511L11.8168 17.9915ZM10.6335 23.8281L9.63352 23.8255V23.8281H10.6335ZM11.1605 28.1335L10.2025 28.4204L10.2045 28.4268L11.1605 28.1335ZM12.6818 30.7884L12.0051 31.5246L12.0091 31.5283L12.6818 30.7884ZM15.0525 33.3381C13.6639 33.3322 12.5354 32.9698 11.6152 32.2906L10.4275 33.8997C11.7345 34.8645 13.2906 35.3307 15.0441 35.3381L15.0525 33.3381ZM11.6152 32.2906C10.6873 31.6057 9.93866 30.583 9.40208 29.1541L7.52974 29.8572C8.17308 31.5704 9.12807 32.9407 10.4275 33.8997L11.6152 32.2906ZM9.40208 29.1541C8.86541 27.725 8.58097 25.9583 8.58097 23.8281H6.58097C6.58097 26.126 6.88648 28.1443 7.52974 29.8572L9.40208 29.1541ZM8.58097 23.8281C8.58097 21.7048 8.86535 19.9452 9.40159 18.5233L7.53023 17.8176C6.88654 19.5245 6.58097 21.5366 6.58097 23.8281H8.58097ZM9.40027 18.5268C9.94305 17.1035 10.6952 16.0819 11.6251 15.3955L10.4374 13.7863C9.14005 14.7439 8.18195 16.1086 7.53155 17.8141L9.40027 18.5268ZM11.6228 15.3972C12.551 14.7161 13.6763 14.358 15.0483 14.358V12.358C13.3047 12.358 11.752 12.8217 10.4397 13.7847L11.6228 15.3972ZM15.0483 14.358C16.4186 14.358 17.5382 14.7185 18.4585 15.4031L19.6523 13.7986C18.3453 12.8261 16.7936 12.358 15.0483 12.358V14.358ZM18.4615 15.4054C19.3904 16.091 20.1389 17.1114 20.6751 18.5333L22.5465 17.8275C21.9028 16.1206 20.9476 14.7546 19.6493 13.7963L18.4615 15.4054ZM20.6769 18.538C21.2182 19.9513 21.5057 21.7057 21.5057 23.8281H23.5057C23.5057 21.5358 23.1966 19.525 22.5447 17.8228L20.6769 18.538ZM21.5057 23.8281C21.5057 25.9653 21.2211 27.7353 20.6846 29.1641L22.5569 29.8672C23.2003 28.1539 23.5057 26.1322 23.5057 23.8281H21.5057ZM20.6851 29.1628C20.1487 30.585 19.3995 31.61 18.4684 32.3028L19.6623 33.9074C20.9584 32.943 21.9128 31.575 22.5564 29.8685L20.6851 29.1628ZM18.4715 32.3005C17.5519 32.9793 16.428 33.3381 15.0483 33.3381V35.3381C16.7973 35.3381 18.3516 34.8748 19.6592 33.9097L18.4715 32.3005ZM15.0483 32.6832C16.8359 32.6832 18.2193 31.7724 19.1462 30.1641L17.4134 29.1654C16.7892 30.2485 16.0182 30.6832 15.0483 30.6832V32.6832ZM19.1444 30.1673C20.0549 28.601 20.4531 26.4498 20.4531 23.8281H18.4531C18.4531 26.2974 18.0692 28.0373 17.4153 29.1622L19.1444 30.1673ZM20.4531 23.8281C20.4531 22.0736 20.2681 20.5397 19.8722 19.2493L17.9602 19.8359C18.2802 20.8789 18.4531 22.2019 18.4531 23.8281H20.4531ZM19.8742 19.2558C19.4891 17.9698 18.9057 16.9006 18.0679 16.1382L16.7218 17.6174C17.2098 18.0615 17.6406 18.7688 17.9582 19.8295L19.8742 19.2558ZM18.0756 16.1453C17.2316 15.3609 16.2051 14.9631 15.0483 14.9631V16.9631C15.7077 16.9631 16.2457 17.175 16.7142 17.6104L18.0756 16.1453ZM15.0483 14.9631C13.2636 14.9631 11.8824 15.8808 10.9511 17.4908L12.6824 18.4922C13.3155 17.3976 14.0887 16.9631 15.0483 16.9631V14.9631ZM10.9511 17.4908C10.0427 19.0613 9.64036 21.2097 9.63353 23.8255L11.6335 23.8307C11.6399 21.3689 12.0264 19.6262 12.6824 18.4922L10.9511 17.4908ZM9.63352 23.8281C9.63352 25.5878 9.81493 27.1259 10.2025 28.4204L12.1185 27.8467C11.8034 26.7945 11.6335 25.4624 11.6335 23.8281H9.63352ZM10.2045 28.4268C10.5961 29.7032 11.1785 30.7647 12.0051 31.5246L13.3586 30.0521C12.8727 29.6055 12.4408 28.8972 12.1165 27.8402L10.2045 28.4268ZM12.0091 31.5283C12.8572 32.2992 13.8888 32.6832 15.0483 32.6832V30.6832C14.365 30.6832 13.8189 30.4706 13.3545 30.0484L12.0091 31.5283ZM26.033 34H25.033V35H26.033V34ZM26.033 31.7727L25.3135 31.0783L25.033 31.3689V31.7727H26.033ZM32.9237 24.6335L33.6432 25.328L33.6491 25.3218L32.9237 24.6335ZM34.7433 22.5952L33.9701 21.961L33.9693 21.9619L34.7433 22.5952ZM35.7077 17.4744L34.8655 18.0135L34.8688 18.0186L35.7077 17.4744ZM34.4052 16.331L33.9623 17.2276L33.971 17.2318L34.4052 16.331ZM28.9464 19.5426V20.5426H29.9464V19.5426H28.9464ZM26.0131 19.5426H25.0131V20.5426H26.0131V19.5426ZM26.8683 16.2912L27.7203 16.8146L26.8683 16.2912ZM29.2148 14.1335L29.6715 15.0232L29.6762 15.0207L29.2148 14.1335ZM35.9862 14.1236L35.5221 15.0094L35.5293 15.0131L35.9862 14.1236ZM38.283 16.1918L37.4365 16.7241L37.4383 16.727L38.283 16.1918ZM38.6808 21.3523L37.7505 20.9853L37.7476 20.9927L38.6808 21.3523ZM37.2191 23.7685L38.004 24.3881L38.0062 24.3852L37.2191 23.7685ZM34.3157 26.9801L33.603 26.2787L33.5978 26.2839L33.5926 26.2893L34.3157 26.9801ZM30.2688 31.2159L29.5458 30.5251L29.2688 30.815V31.2159H30.2688ZM30.2688 31.3651H29.2688V32.3651H30.2688V31.3651ZM39.4364 31.3651H40.4364V30.3651H39.4364V31.3651ZM39.4364 34V35H40.4364V34H39.4364ZM27.033 34V31.7727H25.033V34H27.033ZM26.7525 32.4672L33.6432 25.328L32.2041 23.9391L25.3135 31.0783L26.7525 32.4672ZM33.6491 25.3218C34.3954 24.5352 35.0196 23.8367 35.5172 23.2284L33.9693 21.9619C33.5124 22.5203 32.9235 23.1808 32.1982 23.9453L33.6491 25.3218ZM35.5164 23.2294C36.0399 22.5911 36.4549 21.9563 36.739 21.3251L34.9151 20.5044C34.7219 20.9338 34.4144 21.4193 33.9701 21.961L35.5164 23.2294ZM36.739 21.3251C37.0372 20.6624 37.185 19.9587 37.185 19.2244H35.185C35.185 19.6833 35.0942 20.1065 34.9151 20.5044L36.739 21.3251ZM37.185 19.2244C37.185 18.3861 36.9856 17.6069 36.5467 16.9302L34.8688 18.0186C35.0662 18.323 35.185 18.7105 35.185 19.2244H37.185ZM36.55 16.9354C36.1284 16.2765 35.5504 15.7728 34.8393 15.4301L33.971 17.2318C34.3604 17.4194 34.6508 17.678 34.8655 18.0135L36.55 16.9354ZM34.8481 15.4344C34.144 15.0866 33.3697 14.9233 32.5458 14.9233V16.9233C33.1007 16.9233 33.566 17.0318 33.9623 17.2275L34.8481 15.4344ZM32.5458 14.9233C31.6781 14.9233 30.8706 15.1017 30.1556 15.4941L31.1178 17.2474C31.4899 17.0432 31.9551 16.9233 32.5458 16.9233V14.9233ZM30.1556 15.4941C29.4434 15.8849 28.8864 16.4457 28.5027 17.1607L30.265 18.1063C30.4647 17.7342 30.7429 17.4531 31.1178 17.2474L30.1556 15.4941ZM28.5027 17.1607C28.12 17.874 27.9464 18.6785 27.9464 19.5426H29.9464C29.9464 18.9484 30.0644 18.4802 30.265 18.1063L28.5027 17.1607ZM28.9464 18.5426H26.0131V20.5426H28.9464V18.5426ZM27.0131 19.5426C27.0131 18.4617 27.2598 17.5643 27.7203 16.8146L26.0162 15.7678C25.3366 16.8741 25.0131 18.1444 25.0131 19.5426H27.0131ZM27.7203 16.8146C28.192 16.0468 28.8355 15.4523 29.6715 15.0232L28.7582 13.2439C27.6055 13.8356 26.6847 14.6795 26.0162 15.7678L27.7203 16.8146ZM29.6762 15.0207C30.5104 14.5869 31.4789 14.358 32.6055 14.358V12.358C31.1998 12.358 29.9079 12.646 28.7535 13.2463L29.6762 15.0207ZM32.6055 14.358C33.7496 14.358 34.7126 14.5854 35.5221 15.0094L36.4502 13.2377C35.3109 12.641 34.02 12.358 32.6055 12.358V14.358ZM35.5293 15.0131C36.3619 15.4407 36.9882 16.0112 37.4365 16.7241L39.1296 15.6595C38.4774 14.6223 37.5725 13.8141 36.443 13.234L35.5293 15.0131ZM37.4383 16.727C37.8805 17.4249 38.1083 18.218 38.1083 19.1349H40.1083C40.1083 17.8644 39.7859 16.6954 39.1277 15.6566L37.4383 16.727ZM38.1083 19.1349C38.1083 19.7615 37.9908 20.3763 37.7505 20.9853L39.611 21.7192C39.9408 20.8832 40.1083 20.0198 40.1083 19.1349H38.1083ZM37.7476 20.9927C37.5171 21.591 37.0921 22.3092 36.432 23.1517L38.0062 24.3852C38.7381 23.4512 39.2876 22.5586 39.6139 21.7118L37.7476 20.9927ZM36.4342 23.1488C35.7697 23.9906 34.8297 25.0323 33.603 26.2787L35.0284 27.6816C36.2809 26.409 37.2765 25.3096 38.004 24.3881L36.4342 23.1488ZM33.5926 26.2893L29.5458 30.5251L30.9919 31.9067L35.0387 27.6709L33.5926 26.2893ZM29.2688 31.2159V31.3651H31.2688V31.2159H29.2688ZM30.2688 32.3651H39.4364V30.3651H30.2688V32.3651ZM38.4364 31.3651V34H40.4364V31.3651H38.4364ZM39.4364 33H26.033V35H39.4364V33Z" fill="#212121" mask="url(#path-2-outside-1_65_1184)"/>
</svg>
