<svg width="48" height="48" viewBox="0 0 48 48" fill="none" xmlns="http://www.w3.org/2000/svg">
<circle cx="24" cy="24" r="24" fill="#28366C"/>
<g clip-path="url(#clip0_65_1213)">
<path d="M35 13C35 13 28.472 12.542 26 15C25.977 15.037 22 19 22 19L17 20L14 22L22 26L26 34L28 31L29 26C29 26 32.963 22.023 33 22C35.458 19.528 35 13 35 13ZM29 20C28.7348 20 28.4804 19.8946 28.2929 19.7071C28.1054 19.5196 28 19.2652 28 19C28 18.7348 28.1054 18.4804 28.2929 18.2929C28.4804 18.1054 28.7348 18 29 18C29.2652 18 29.5196 18.1054 29.7071 18.2929C29.8946 18.4804 30 18.7348 30 19C30 19.2652 29.8946 19.5196 29.7071 19.7071C29.5196 19.8946 29.2652 20 29 20ZM19 29C18 28 16 28 15 29C14 30 14 34 14 34C14 34 18 34 19 33C20 32 20 30 19 29Z" stroke="#EEF1F3" stroke-width="1.2"/>
</g>
<defs>
<clipPath id="clip0_65_1213">
<rect width="24" height="24" fill="white" transform="translate(12 12)"/>
</clipPath>
</defs>
</svg>
