<svg width="48" height="48" viewBox="0 0 48 48" fill="none" xmlns="http://www.w3.org/2000/svg">
<rect width="48" height="48" rx="8" fill="#BECBFE"/>
<mask id="path-2-outside-1_65_1197" maskUnits="userSpaceOnUse" x="5.5" y="12" width="36" height="24" fill="black">
<rect fill="white" x="5.5" y="12" width="36" height="24"/>
<path d="M14.5483 34.3381C12.9773 34.3314 11.6349 33.9171 10.5213 33.0952C9.40767 32.2732 8.55587 31.0767 7.96591 29.5057C7.37595 27.9347 7.08097 26.0421 7.08097 23.8281C7.08097 21.6207 7.37595 19.7348 7.96591 18.1705C8.5625 16.6061 9.41761 15.4129 10.5312 14.5909C11.6515 13.7689 12.9905 13.358 14.5483 13.358C16.1061 13.358 17.4418 13.7723 18.5554 14.6009C19.669 15.4228 20.5208 16.616 21.1108 18.1804C21.7074 19.7382 22.0057 21.6207 22.0057 23.8281C22.0057 26.0488 21.7107 27.9446 21.1207 29.5156C20.5308 31.08 19.679 32.2765 18.5653 33.1051C17.4517 33.9271 16.1127 34.3381 14.5483 34.3381ZM14.5483 31.6832C15.9271 31.6832 17.0043 31.0104 17.7798 29.6648C18.562 28.3191 18.9531 26.3736 18.9531 23.8281C18.9531 22.1378 18.7741 20.7093 18.4162 19.5426C18.0649 18.3693 17.5578 17.4811 16.8949 16.8778C16.2386 16.268 15.4564 15.9631 14.5483 15.9631C13.1761 15.9631 12.099 16.6392 11.3168 17.9915C10.5346 19.3437 10.1402 21.2893 10.1335 23.8281C10.1335 25.5251 10.3092 26.9602 10.6605 28.1335C11.0185 29.3002 11.5256 30.1851 12.1818 30.7884C12.8381 31.3849 13.6269 31.6832 14.5483 31.6832ZM32.6225 34.2784C31.257 34.2784 30.0373 34.0431 28.9634 33.5724C27.8962 33.1018 27.051 32.4489 26.4279 31.6136C25.8114 30.7718 25.48 29.7973 25.4336 28.6903H28.5558C28.5955 29.2936 28.7977 29.8172 29.1623 30.2614C29.5335 30.6989 30.0174 31.0369 30.614 31.2756C31.2106 31.5142 31.8735 31.6335 32.6026 31.6335C33.4047 31.6335 34.114 31.4943 34.7305 31.2159C35.3536 30.9375 35.8408 30.5497 36.1921 30.0526C36.5434 29.5488 36.7191 28.9688 36.7191 28.3125C36.7191 27.6297 36.5434 27.0298 36.1921 26.5128C35.8474 25.9891 35.3403 25.5781 34.6708 25.2798C34.0079 24.9815 33.2058 24.8324 32.2646 24.8324H30.5444V22.3267H32.2646C33.0202 22.3267 33.6831 22.1908 34.2532 21.919C34.8299 21.6473 35.2807 21.2694 35.6055 20.7855C35.9303 20.295 36.0927 19.7216 36.0927 19.0653C36.0927 18.4356 35.9502 17.8887 35.6651 17.4247C35.3867 16.9541 34.989 16.5862 34.4719 16.321C33.9615 16.0559 33.3583 15.9233 32.6623 15.9233C31.9994 15.9233 31.3796 16.0459 30.8029 16.2912C30.2328 16.5298 29.7688 16.8745 29.4109 17.3253C29.0529 17.7694 28.8607 18.303 28.8342 18.9261H25.8612C25.8943 17.8258 26.2191 16.858 26.8356 16.0227C27.4587 15.1875 28.2807 14.5346 29.3015 14.0639C30.3223 13.5933 31.4558 13.358 32.7021 13.358C34.0079 13.358 35.1348 13.6132 36.0827 14.1236C37.0373 14.6274 37.7731 15.3002 38.2901 16.142C38.8138 16.9839 39.0723 17.9053 39.0657 18.9062C39.0723 20.0464 38.7541 21.0142 38.1112 21.8097C37.4748 22.6051 36.6263 23.1387 35.5657 23.4105V23.5696C36.918 23.7751 37.9653 24.312 38.7077 25.1804C39.4568 26.0488 39.828 27.1259 39.8214 28.4119C39.828 29.5322 39.5165 30.5365 38.8867 31.4247C38.2636 32.313 37.4118 33.0123 36.3313 33.5227C35.2508 34.0265 34.0146 34.2784 32.6225 34.2784Z"/>
</mask>
<path d="M14.5483 34.3381L14.5441 35.3381H14.5483V34.3381ZM7.96591 29.5057L8.90208 29.1541L8.90208 29.1541L7.96591 29.5057ZM7.96591 18.1705L7.03154 17.8141L7.03023 17.8176L7.96591 18.1705ZM10.5312 14.5909L9.93968 13.7847L9.9374 13.7863L10.5312 14.5909ZM18.5554 14.6009L17.9585 15.4031L17.9615 15.4054L18.5554 14.6009ZM21.1108 18.1804L20.1751 18.5333L20.1769 18.538L21.1108 18.1804ZM21.1207 29.5156L22.0564 29.8685L22.0569 29.8672L21.1207 29.5156ZM18.5653 33.1051L19.1592 33.9097L19.1623 33.9074L18.5653 33.1051ZM17.7798 29.6648L16.9153 29.1622L16.9134 29.1654L17.7798 29.6648ZM18.4162 19.5426L17.4582 19.8295L17.4602 19.8359L18.4162 19.5426ZM16.8949 16.8778L16.2141 17.6104L16.2218 17.6174L16.8949 16.8778ZM11.3168 17.9915L10.4511 17.4908L10.4511 17.4908L11.3168 17.9915ZM10.1335 23.8281L9.13352 23.8255V23.8281H10.1335ZM10.6605 28.1335L9.70251 28.4204L9.7045 28.4268L10.6605 28.1335ZM12.1818 30.7884L11.5051 31.5246L11.5091 31.5283L12.1818 30.7884ZM14.5525 33.3381C13.1639 33.3322 12.0354 32.9698 11.1152 32.2906L9.92745 33.8997C11.2345 34.8645 12.7906 35.3307 14.5441 35.3381L14.5525 33.3381ZM11.1152 32.2906C10.1873 31.6057 9.43866 30.583 8.90208 29.1541L7.02974 29.8572C7.67308 31.5704 8.62807 32.9407 9.92745 33.8997L11.1152 32.2906ZM8.90208 29.1541C8.36541 27.725 8.08097 25.9583 8.08097 23.8281H6.08097C6.08097 26.126 6.38648 28.1443 7.02974 29.8572L8.90208 29.1541ZM8.08097 23.8281C8.08097 21.7048 8.36535 19.9452 8.90159 18.5233L7.03023 17.8176C6.38654 19.5245 6.08097 21.5366 6.08097 23.8281H8.08097ZM8.90027 18.5268C9.44305 17.1035 10.1952 16.0819 11.1251 15.3955L9.9374 13.7863C8.64005 14.7439 7.68195 16.1086 7.03155 17.8141L8.90027 18.5268ZM11.1228 15.3972C12.051 14.7161 13.1763 14.358 14.5483 14.358V12.358C12.8047 12.358 11.252 12.8217 9.93968 13.7847L11.1228 15.3972ZM14.5483 14.358C15.9186 14.358 17.0382 14.7185 17.9585 15.4031L19.1523 13.7986C17.8453 12.8261 16.2936 12.358 14.5483 12.358V14.358ZM17.9615 15.4054C18.8904 16.091 19.6389 17.1114 20.1751 18.5333L22.0465 17.8275C21.4028 16.1206 20.4476 14.7546 19.1493 13.7963L17.9615 15.4054ZM20.1769 18.538C20.7182 19.9513 21.0057 21.7057 21.0057 23.8281H23.0057C23.0057 21.5358 22.6966 19.525 22.0447 17.8228L20.1769 18.538ZM21.0057 23.8281C21.0057 25.9653 20.7211 27.7353 20.1846 29.1641L22.0569 29.8672C22.7003 28.1539 23.0057 26.1322 23.0057 23.8281H21.0057ZM20.1851 29.1628C19.6487 30.585 18.8995 31.61 17.9684 32.3028L19.1623 33.9074C20.4584 32.943 21.4128 31.575 22.0564 29.8685L20.1851 29.1628ZM17.9715 32.3005C17.0519 32.9793 15.928 33.3381 14.5483 33.3381V35.3381C16.2973 35.3381 17.8516 34.8748 19.1592 33.9097L17.9715 32.3005ZM14.5483 32.6832C16.3359 32.6832 17.7193 31.7724 18.6462 30.1641L16.9134 29.1654C16.2892 30.2485 15.5182 30.6832 14.5483 30.6832V32.6832ZM18.6444 30.1673C19.5549 28.601 19.9531 26.4498 19.9531 23.8281H17.9531C17.9531 26.2974 17.5692 28.0373 16.9153 29.1622L18.6444 30.1673ZM19.9531 23.8281C19.9531 22.0736 19.7681 20.5397 19.3722 19.2493L17.4602 19.8359C17.7802 20.8789 17.9531 22.2019 17.9531 23.8281H19.9531ZM19.3742 19.2558C18.9891 17.9698 18.4057 16.9006 17.5679 16.1382L16.2218 17.6174C16.7098 18.0615 17.1406 18.7688 17.4582 19.8295L19.3742 19.2558ZM17.5756 16.1453C16.7316 15.3609 15.7051 14.9631 14.5483 14.9631V16.9631C15.2077 16.9631 15.7457 17.175 16.2142 17.6104L17.5756 16.1453ZM14.5483 14.9631C12.7636 14.9631 11.3824 15.8808 10.4511 17.4908L12.1824 18.4922C12.8155 17.3976 13.5887 16.9631 14.5483 16.9631V14.9631ZM10.4511 17.4908C9.54273 19.0613 9.14036 21.2097 9.13353 23.8255L11.1335 23.8307C11.1399 21.3689 11.5264 19.6262 12.1824 18.4922L10.4511 17.4908ZM9.13352 23.8281C9.13352 25.5878 9.31493 27.1259 9.70254 28.4204L11.6185 27.8467C11.3034 26.7945 11.1335 25.4624 11.1335 23.8281H9.13352ZM9.7045 28.4268C10.0961 29.7032 10.6785 30.7647 11.5051 31.5246L12.8586 30.0521C12.3727 29.6055 11.9408 28.8972 11.6165 27.8402L9.7045 28.4268ZM11.5091 31.5283C12.3572 32.2992 13.3888 32.6832 14.5483 32.6832V30.6832C13.865 30.6832 13.3189 30.4706 12.8545 30.0484L11.5091 31.5283ZM28.9634 33.5724L28.5599 34.4874L28.562 34.4883L28.9634 33.5724ZM26.4279 31.6136L25.6211 32.2045L25.6264 32.2116L26.4279 31.6136ZM25.4336 28.6903V27.6903H24.3908L24.4345 28.7322L25.4336 28.6903ZM28.5558 28.6903L29.5536 28.6245L29.492 27.6903H28.5558V28.6903ZM29.1623 30.2614L28.3894 30.8959L28.3945 30.9021L28.3998 30.9083L29.1623 30.2614ZM30.614 31.2756L30.9854 30.3471L30.9854 30.3471L30.614 31.2756ZM34.7305 31.2159L34.3225 30.3029L34.3189 30.3045L34.7305 31.2159ZM36.1921 30.0526L37.0088 30.6297L37.0124 30.6246L36.1921 30.0526ZM36.1921 26.5128L35.3568 27.0626L35.3609 27.0687L35.365 27.0748L36.1921 26.5128ZM34.6708 25.2798L34.2604 26.1918L34.2638 26.1933L34.6708 25.2798ZM30.5444 24.8324H29.5444V25.8324H30.5444V24.8324ZM30.5444 22.3267V21.3267H29.5444V22.3267H30.5444ZM34.2532 21.919L33.8269 21.0144L33.8229 21.0164L34.2532 21.919ZM35.6055 20.7855L36.4358 21.3428L36.4392 21.3376L35.6055 20.7855ZM35.6651 17.4247L34.8044 17.9339L34.8087 17.941L34.8131 17.9481L35.6651 17.4247ZM34.4719 16.321L34.0109 17.2084L34.0156 17.2108L34.4719 16.321ZM30.8029 16.2912L31.1891 17.2136L31.1943 17.2114L30.8029 16.2912ZM29.4109 17.3253L30.1895 17.9528L30.194 17.9472L29.4109 17.3253ZM28.8342 18.9261V19.9261H29.7925L29.8333 18.9686L28.8342 18.9261ZM25.8612 18.9261L24.8616 18.896L24.8306 19.9261H25.8612V18.9261ZM26.8356 16.0227L26.034 15.4248L26.031 15.4289L26.8356 16.0227ZM29.3015 14.0639L29.7202 14.9721L29.7202 14.9721L29.3015 14.0639ZM36.0827 14.1236L35.6086 15.0041L35.616 15.008L36.0827 14.1236ZM38.2901 16.142L37.438 16.6654L37.441 16.6702L38.2901 16.142ZM39.0657 18.9062L38.0656 18.8996L38.0657 18.9121L39.0657 18.9062ZM38.1112 21.8097L37.3334 21.181L37.3303 21.185L38.1112 21.8097ZM35.5657 23.4105L35.3175 22.4418L34.5657 22.6345V23.4105H35.5657ZM35.5657 23.5696H34.5657V24.4291L35.4155 24.5583L35.5657 23.5696ZM38.7077 25.1804L37.9477 25.8302L37.9505 25.8336L38.7077 25.1804ZM39.8214 28.4119L38.8213 28.4068L38.8214 28.4178L39.8214 28.4119ZM38.8867 31.4247L38.0709 30.8464L38.0681 30.8504L38.8867 31.4247ZM36.3313 33.5227L36.7539 34.4291L36.7585 34.4269L36.3313 33.5227ZM32.6225 33.2784C31.3726 33.2784 30.293 33.0633 29.3648 32.6565L28.562 34.4883C29.7816 35.0228 31.1413 35.2784 32.6225 35.2784V33.2784ZM29.3669 32.6575C28.4383 32.2479 27.7376 31.6968 27.2294 31.0157L25.6264 32.2116C26.3645 33.201 27.3541 33.9557 28.5599 34.4874L29.3669 32.6575ZM27.2347 31.0228C26.7427 30.3509 26.4714 29.5704 26.4327 28.6485L24.4345 28.7322C24.4886 30.0243 24.8802 31.1926 25.6211 32.2044L27.2347 31.0228ZM25.4336 29.6903H28.5558V27.6903H25.4336V29.6903ZM27.5579 28.7561C27.6107 29.5562 27.8851 30.2816 28.3894 30.8959L29.9352 29.6269C29.7103 29.3529 29.5804 29.0309 29.5536 28.6245L27.5579 28.7561ZM28.3998 30.9083C28.8886 31.4844 29.5131 31.9122 30.2426 32.204L30.9854 30.3471C30.5217 30.1616 30.1784 29.9133 29.9248 29.6144L28.3998 30.9083ZM30.2426 32.204C30.9722 32.4959 31.7633 32.6335 32.6026 32.6335V30.6335C31.9836 30.6335 31.449 30.5325 30.9854 30.3471L30.2426 32.204ZM32.6026 32.6335C33.5206 32.6335 34.3744 32.4739 35.1421 32.1273L34.3189 30.3045C33.8535 30.5147 33.2888 30.6335 32.6026 30.6335V32.6335ZM35.1384 32.1289C35.9051 31.7863 36.5417 31.2906 37.0088 30.6297L35.3755 29.4754C35.1399 29.8088 34.802 30.0887 34.3225 30.3029L35.1384 32.1289ZM37.0124 30.6246C37.4889 29.9413 37.7191 29.1585 37.7191 28.3125H35.7191C35.7191 28.779 35.598 29.1563 35.3719 29.4805L37.0124 30.6246ZM37.7191 28.3125C37.7191 27.4486 37.4936 26.6489 37.0192 25.9508L35.365 27.0748C35.5933 27.4108 35.7191 27.8108 35.7191 28.3125H37.7191ZM37.0274 25.963C36.5609 25.2542 35.8918 24.7291 35.0778 24.3664L34.2638 26.1933C34.7888 26.4272 35.134 26.724 35.3568 27.0626L37.0274 25.963ZM35.0812 24.3679C34.2572 23.9971 33.3073 23.8324 32.2646 23.8324V25.8324C33.1044 25.8324 33.7587 25.966 34.2604 26.1918L35.0812 24.3679ZM32.2646 23.8324H30.5444V25.8324H32.2646V23.8324ZM31.5444 24.8324V22.3267H29.5444V24.8324H31.5444ZM30.5444 23.3267H32.2646V21.3267H30.5444V23.3267ZM32.2646 23.3267C33.1402 23.3267 33.9552 23.1689 34.6835 22.8217L33.8229 21.0164C33.411 21.2127 32.9002 21.3267 32.2646 21.3267V23.3267ZM34.6795 22.8236C35.4039 22.4822 36.0008 21.9908 36.4358 21.3428L34.7752 20.2282C34.5605 20.548 34.2559 20.8123 33.8269 21.0145L34.6795 22.8236ZM36.4392 21.3376C36.8848 20.6648 37.0927 19.8944 37.0927 19.0653H35.0927C35.0927 19.5487 34.9758 19.9252 34.7717 20.2334L36.4392 21.3376ZM37.0927 19.0653C37.0927 18.2802 36.9133 17.5461 36.5172 16.9013L34.8131 17.9481C34.987 18.2314 35.0927 18.591 35.0927 19.0653H37.0927ZM36.5258 16.9156C36.1452 16.2721 35.6023 15.7769 34.9283 15.4312L34.0156 17.2108C34.3756 17.3955 34.6283 17.6361 34.8044 17.9339L36.5258 16.9156ZM34.9329 15.4336C34.2532 15.0805 33.4854 14.9233 32.6623 14.9233V16.9233C33.2312 16.9233 33.6699 17.0312 34.011 17.2084L34.9329 15.4336ZM32.6623 14.9233C31.8728 14.9233 31.1191 15.0701 30.4115 15.371L31.1943 17.2114C31.6402 17.0218 32.126 16.9233 32.6623 16.9233V14.9233ZM30.4168 15.3688C29.703 15.6676 29.0983 16.1109 28.6278 16.7034L30.194 17.9472C30.4394 17.6381 30.7627 17.3921 31.189 17.2136L30.4168 15.3688ZM28.6323 16.6978C28.1275 17.324 27.8698 18.068 27.8351 18.8836L29.8333 18.9686C29.8516 18.5381 29.9783 18.2148 30.1895 17.9528L28.6323 16.6978ZM28.8342 17.9261H25.8612V19.9261H28.8342V17.9261ZM26.8607 18.9562C26.8881 18.0462 27.152 17.2779 27.6402 16.6166L26.031 15.4289C25.2862 16.438 24.9005 17.6053 24.8616 18.896L26.8607 18.9562ZM27.6371 16.6207C28.1527 15.9296 28.8386 15.3785 29.7202 14.9721L28.8828 13.1558C27.7227 13.6906 26.7647 14.4454 26.0341 15.4248L27.6371 16.6207ZM29.7202 14.9721C30.5961 14.5682 31.5846 14.358 32.7021 14.358V12.358C31.3271 12.358 30.0486 12.6183 28.8828 13.1558L29.7202 14.9721ZM32.7021 14.358C33.8774 14.358 34.8344 14.5871 35.6086 15.004L36.5568 13.2431C35.4353 12.6392 34.1385 12.358 32.7021 12.358V14.358ZM35.616 15.008C36.4272 15.4361 37.0233 15.9902 37.438 16.6654L39.1422 15.6187C38.5229 14.6102 37.6474 13.8186 36.5495 13.2392L35.616 15.008ZM37.441 16.6702C37.8639 17.35 38.0711 18.0857 38.0657 18.8996L40.0657 18.9129C40.0735 17.7249 39.7637 16.6178 39.1393 15.6138L37.441 16.6702ZM38.0657 18.9121C38.0712 19.8496 37.8146 20.5858 37.3335 21.181L38.8888 22.4383C39.6937 21.4426 40.0735 20.2432 40.0657 18.9004L38.0657 18.9121ZM37.3303 21.185C36.8398 21.798 36.1846 22.2196 35.3175 22.4418L35.8139 24.3792C37.068 24.0579 38.1097 23.4122 38.892 22.4344L37.3303 21.185ZM34.5657 23.4105V23.5696H36.5657V23.4105H34.5657ZM35.4155 24.5583C36.5794 24.7351 37.3907 25.1788 37.9477 25.8302L39.4678 24.5306C38.5399 23.4452 37.2565 22.8151 35.7159 22.581L35.4155 24.5583ZM37.9505 25.8336C38.5224 26.4966 38.8269 27.331 38.8214 28.4068L40.8214 28.4171C40.8291 26.9209 40.3912 25.601 39.465 24.5272L37.9505 25.8336ZM38.8214 28.4178C38.8268 29.3353 38.576 30.134 38.0709 30.8464L39.7025 32.0031C40.4569 30.9389 40.8292 29.7291 40.8214 28.406L38.8214 28.4178ZM38.0681 30.8504C37.5545 31.5825 36.8441 32.1745 35.9042 32.6185L36.7585 34.4269C37.9796 33.8501 38.9727 33.0434 39.7054 31.999L38.0681 30.8504ZM35.9087 32.6164C34.981 33.049 33.8929 33.2784 32.6225 33.2784V35.2784C34.1363 35.2784 35.5207 35.0041 36.7539 34.4291L35.9087 32.6164Z" fill="#212121" mask="url(#path-2-outside-1_65_1197)"/>
</svg>
