<svg width="48" height="48" viewBox="0 0 48 48" fill="none" xmlns="http://www.w3.org/2000/svg">
<circle cx="24" cy="24" r="24" fill="#28366C"/>
<path d="M22.5248 25.9595C23.4358 25.9595 24.3094 25.5977 24.9535 24.9535M22.5248 25.9595C21.6139 25.9595 20.7403 25.5977 20.0962 24.9535M22.5248 25.9595V28.5355M24.9535 24.9535C25.5976 24.3094 25.9595 23.4358 25.9595 22.5249M24.9535 24.9535L26.7744 26.7745M25.9595 22.5249C25.9595 21.6139 25.5976 20.7403 24.9535 20.0962M25.9595 22.5249H28.5355M24.9535 20.0962C24.3094 19.4521 23.4358 19.0902 22.5248 19.0902M24.9535 20.0962L26.7744 18.2753M22.5248 19.0902C21.6139 19.0902 20.7403 19.4521 20.0962 20.0962M22.5248 19.0902V16.5142M20.0962 20.0962C19.452 20.7403 19.0902 21.6139 19.0902 22.5249M20.0962 20.0962L18.2752 18.2753M19.0902 22.5249C19.0902 23.4358 19.452 24.3094 20.0962 24.9535M19.0902 22.5249H16.5142M20.0962 24.9535L18.2752 26.7745M21.952 16.5142H23.0976M26.3702 17.8699L27.1798 18.6806M28.5355 21.9521V23.0977M27.1798 26.3702L26.3702 27.1798M23.0976 28.5355H21.952M18.6795 27.1798L17.8699 26.3702M16.5142 23.0977V21.9521M17.8699 18.6795L18.6795 17.8699" stroke="#EEF1F3" stroke-width="1.2" stroke-linecap="round" stroke-linejoin="round"/>
<path d="M36 36L29.9669 29.9669M22.5248 33.0496C28.3381 33.0496 33.0496 28.3371 33.0496 22.5248C33.0496 16.7125 28.3371 12 22.5248 12C16.7125 12 12 16.7125 12 22.5248C12 28.3371 16.7125 33.0496 22.5248 33.0496Z" stroke="#EEF1F3" stroke-width="1.2" stroke-linecap="round" stroke-linejoin="round"/>
</svg>
